<svg width="16" height="16" viewBox="0 0 16 16" fill="none" xmlns="http://www.w3.org/2000/svg">
<path d="M8.34275 15.5619L8.33409 15.5635L8.27817 15.591L8.26241 15.5942L8.25139 15.591L8.19547 15.5635C8.18706 15.5608 8.18076 15.5621 8.17656 15.5674L8.17341 15.5753L8.16002 15.9124L8.16396 15.9281L8.17184 15.9384L8.25375 15.9966L8.26556 15.9998L8.27502 15.9966L8.35693 15.9384L8.36638 15.9258L8.36953 15.9124L8.35614 15.5761C8.35404 15.5677 8.34958 15.5629 8.34275 15.5619ZM8.55148 15.4729L8.54124 15.4744L8.39552 15.5477L8.38765 15.5556L8.38529 15.5642L8.39946 15.9029L8.4034 15.9124L8.4097 15.9179L8.56802 15.9911C8.57799 15.9938 8.58561 15.9917 8.59086 15.9848L8.59401 15.9738L8.56723 15.4902C8.5646 15.4807 8.55935 15.475 8.55148 15.4729ZM7.98832 15.4744C7.98485 15.4723 7.9807 15.4717 7.97674 15.4725C7.97277 15.4734 7.96931 15.4758 7.96705 15.4792L7.96233 15.4902L7.93555 15.9738C7.93607 15.9833 7.94054 15.9896 7.94894 15.9927L7.96075 15.9911L8.11907 15.9179L8.12694 15.9116L8.13009 15.9029L8.14348 15.5642L8.14112 15.5548L8.13324 15.5469L7.98832 15.4744Z" fill="#FDFAF2"/>
<path d="M14.3741 0.0250874C14.5143 -0.01118 14.6618 -0.00807261 14.8004 0.034068C14.939 0.0762087 15.0633 0.15575 15.1596 0.263946C15.2559 0.372142 15.3205 0.504801 15.3463 0.647336C15.3721 0.78987 15.3581 0.93676 15.3058 1.07185L10.58 13.2802C10.5333 13.4011 10.4574 13.5086 10.3592 13.5931C10.2609 13.6777 10.1433 13.7367 10.0168 13.7649C9.89023 13.7931 9.75869 13.7897 9.63382 13.7548C9.50895 13.72 9.3946 13.6549 9.30093 13.5653L6.63715 11.0173L5.68963 11.964C5.18869 12.465 4.33175 12.1105 4.33175 11.4017V8.81192L0.243146 4.90132C0.141702 4.80427 0.0680422 4.68187 0.0297936 4.54678C-0.00845493 4.4117 -0.0099023 4.26885 0.0256015 4.13302C0.0611053 3.99719 0.13227 3.87332 0.231727 3.77423C0.331184 3.67514 0.455319 3.60443 0.59128 3.56944L14.3741 0.0250874ZM12.709 3.41585L6.40952 8.61974L9.53643 11.6112L12.709 3.41585ZM11.4661 2.3998L2.35558 4.74143L5.26352 7.52178L11.4661 2.39823V2.3998Z" fill="#FDFAF2"/>
</svg>
