<svg width="24" height="19" viewBox="0 0 24 19" fill="none" xmlns="http://www.w3.org/2000/svg">
<path d="M11.6667 5.83333C11.6667 4.28624 11.0521 2.80251 9.95812 1.70854C8.86416 0.614582 7.38043 0 5.83333 0C4.28624 0 2.80251 0.614582 1.70854 1.70854C0.614582 2.80251 0 4.28624 0 5.83333C0 7.336 0.212 9.54533 2.33333 11.6667L11.6667 18.6667C11.6667 18.6667 18.8787 13.788 21 11.6667C23.1213 9.54533 23.3333 7.336 23.3333 5.83333C23.3333 4.28624 22.7188 2.80251 21.6248 1.70854C20.5308 0.614582 19.0471 0 17.5 0C15.9529 0 14.4692 0.614582 13.3752 1.70854C12.2812 2.80251 11.6667 4.28624 11.6667 5.83333Z" fill="black"/>
</svg>
