<svg width="846" height="166" viewBox="0 0 846 166" fill="none" xmlns="http://www.w3.org/2000/svg">
<path d="M9.624 94.5L10.808 73.316H13.784L21.176 89.476L28.248 73.316H31.512L32.696 94.5H29.432L28.568 76.292H28.44L20.376 94.5H19.928L12.024 77.028H11.896L11.032 94.5H9.624ZM38.0615 94.5L39.2455 73.316H42.2215L49.6135 89.476L56.6855 73.316H59.9495L61.1335 94.5H57.8695L57.0055 76.292H56.8775L48.8135 94.5H48.3655L40.4615 77.028H40.3335L39.4695 94.5H38.0615Z" fill="#DFBB73"/>
<path d="M124.608 128.152C118.293 128.152 112.747 126.189 107.968 122.264C103.275 118.339 99.6053 112.835 96.96 105.752C94.4 98.584 93.12 90.136 93.12 80.408C93.12 71.0213 94.528 62.8293 97.344 55.832C100.245 48.7493 104.085 43.288 108.864 39.448C113.728 35.5227 119.104 33.56 124.992 33.56C128.491 33.56 131.563 33.9013 134.208 34.584C136.853 35.1813 139.2 35.992 141.248 37.016C142.272 37.6133 142.784 38.5093 142.784 39.704L143.168 59.16C143.168 60.6107 142.656 61.336 141.632 61.336C140.693 61.336 140.096 60.7813 139.84 59.672L138.56 54.936C136.768 48.28 134.677 43.672 132.288 41.112C129.984 38.552 127.211 37.272 123.968 37.272C117.995 37.272 113.003 40.984 108.992 48.408C105.067 55.7467 103.104 66.4133 103.104 80.408C103.104 89.9653 104.085 98.0293 106.048 104.6C108.096 111.171 110.699 116.12 113.856 119.448C117.099 122.776 120.512 124.44 124.096 124.44C127.936 124.44 131.008 123.245 133.312 120.856C135.701 118.467 137.707 113.859 139.328 107.032L140.864 100.76C141.12 99.48 141.803 98.9253 142.912 99.096C143.851 99.2667 144.32 99.992 144.32 101.272L143.808 122.008C143.808 123.203 143.253 124.099 142.144 124.696C140.096 125.72 137.664 126.531 134.848 127.128C132.117 127.811 128.704 128.152 124.608 128.152ZM147.616 127C146.336 127 145.696 126.573 145.696 125.72C145.696 124.867 146.293 124.312 147.488 124.056L149.408 123.672C151.115 123.331 152.395 122.52 153.248 121.24C154.101 119.875 154.827 117.997 155.424 115.608L175.264 35.608C175.435 34.7547 175.691 34.2 176.032 33.944C176.459 33.688 176.843 33.56 177.184 33.56C177.611 33.56 177.995 33.688 178.336 33.944C178.763 34.2 179.061 34.7547 179.232 35.608L199.456 116.76C200.053 119.149 200.736 120.813 201.504 121.752C202.272 122.691 203.467 123.331 205.088 123.672L207.008 124.056C208.203 124.312 208.8 124.867 208.8 125.72C208.8 126.573 208.16 127 206.88 127H184.992C183.797 127 183.2 126.531 183.2 125.592C183.2 124.653 183.925 124.141 185.376 124.056L187.808 123.8C189.259 123.629 190.155 123.16 190.496 122.392C190.923 121.624 190.923 120.301 190.496 118.424L185.632 98.584C185.12 96.3653 183.712 95.256 181.408 95.256H167.968C165.749 95.256 164.341 96.3653 163.744 98.584L159.392 115.736C158.112 120.6 159.392 123.288 163.232 123.8L165.152 124.056C166.603 124.312 167.328 124.824 167.328 125.592C167.328 126.531 166.731 127 165.536 127H147.616ZM167.584 91.416H181.664C183.029 91.416 183.584 90.6907 183.328 89.24L175.136 54.936H174.496L165.92 89.24C165.664 90.6907 166.219 91.416 167.584 91.416ZM262.85 128.152C255.426 128.152 250.69 123.288 248.642 113.56L245.698 99.352C244.759 94.744 243.693 91.2453 242.498 88.856C241.389 86.4667 239.81 84.8453 237.762 83.992C235.799 83.1387 233.069 82.712 229.57 82.712C228.375 82.712 227.437 83.0533 226.754 83.736C226.071 84.3333 225.73 85.1013 225.73 86.04V118.04C225.73 119.832 226.071 121.069 226.754 121.752C227.437 122.349 228.973 122.861 231.362 123.288L236.098 124.056C237.037 124.227 237.506 124.696 237.506 125.464C237.506 126.488 236.866 127 235.586 127H209.602C208.322 127 207.682 126.531 207.682 125.592C207.682 124.824 208.237 124.312 209.346 124.056L212.29 123.544C214.082 123.203 215.234 122.733 215.746 122.136C216.343 121.539 216.642 120.344 216.642 118.552V43.288C216.642 41.496 216.343 40.3013 215.746 39.704C215.234 39.1067 214.082 38.6373 212.29 38.296L209.346 37.784C208.237 37.528 207.682 37.016 207.682 36.248C207.682 35.3093 208.322 34.84 209.602 34.84H235.586C240.621 34.84 245.101 35.8213 249.026 37.784C252.951 39.7467 256.023 42.4773 258.242 45.976C260.461 49.3893 261.57 53.3573 261.57 57.88C261.57 63.256 259.949 68.12 256.706 72.472C253.463 76.7387 249.367 79.768 244.418 81.56C243.821 81.7307 243.479 82.0293 243.394 82.456C243.394 82.7973 243.693 83.096 244.29 83.352C247.021 84.632 249.154 86.424 250.69 88.728C252.311 91.032 253.549 94.104 254.402 97.944L257.218 111C258.157 115.437 259.266 118.595 260.546 120.472C261.826 122.349 263.447 123.288 265.41 123.288C266.093 123.288 266.69 123.203 267.202 123.032C267.799 122.776 268.525 122.349 269.378 121.752C270.061 121.325 270.701 121.24 271.298 121.496C271.895 121.667 272.194 122.093 272.194 122.776C272.194 124.227 271.255 125.507 269.378 126.616C267.501 127.64 265.325 128.152 262.85 128.152ZM234.306 79.512C240.109 79.512 244.503 77.592 247.49 73.752C250.477 69.8267 251.97 64.6213 251.97 58.136C251.97 51.8213 250.221 46.9147 246.722 43.416C243.309 39.832 238.573 38.04 232.514 38.04C227.991 38.04 225.73 39.7467 225.73 43.16V72.472C225.73 77.1653 228.589 79.512 234.306 79.512ZM311.195 125.72C310.854 125.72 310.47 125.592 310.043 125.336C309.616 125.08 309.318 124.525 309.147 123.672L289.819 45.208C289.734 44.6107 289.478 44.3547 289.051 44.44C288.624 44.44 288.411 44.7387 288.411 45.336L285.851 115.992C285.766 118.381 286.15 120.216 287.003 121.496C287.856 122.691 289.35 123.459 291.483 123.8L293.147 124.056C294.256 124.141 294.811 124.653 294.811 125.592C294.811 126.531 294.171 127 292.891 127H274.587C273.307 127 272.667 126.531 272.667 125.592C272.667 124.653 273.222 124.141 274.331 124.056L275.995 123.8C278.214 123.459 279.707 122.691 280.475 121.496C281.328 120.216 281.798 118.381 281.883 115.992L284.443 43.288C284.528 41.496 284.272 40.3013 283.675 39.704C283.078 39.1067 281.798 38.6373 279.835 38.296L276.891 37.784C275.782 37.528 275.227 37.016 275.227 36.248C275.227 35.3093 275.867 34.84 277.147 34.84H292.507C295.152 34.84 296.774 36.12 297.371 38.68L312.859 102.552C313.03 103.149 313.286 103.448 313.627 103.448C314.054 103.448 314.31 103.149 314.395 102.552L330.523 38.04C331.035 35.9067 332.4 34.84 334.619 34.84H349.723C351.003 34.84 351.643 35.3093 351.643 36.248C351.643 37.016 351.088 37.528 349.979 37.784L347.035 38.296C345.243 38.6373 344.048 39.1067 343.451 39.704C342.854 40.3013 342.598 41.496 342.683 43.288L345.243 118.552C345.328 120.344 345.627 121.539 346.139 122.136C346.651 122.733 347.803 123.203 349.595 123.544L352.539 124.056C353.648 124.312 354.203 124.824 354.203 125.592C354.203 126.531 353.563 127 352.283 127H329.115C327.835 127 327.195 126.531 327.195 125.592C327.195 124.824 327.75 124.312 328.859 124.056L331.803 123.544C333.595 123.203 334.79 122.733 335.387 122.136C335.984 121.539 336.24 120.344 336.155 118.552L333.979 45.336C333.979 44.7387 333.766 44.44 333.339 44.44C332.998 44.3547 332.742 44.568 332.571 45.08L313.115 123.672C312.944 124.525 312.646 125.08 312.219 125.336C311.878 125.592 311.536 125.72 311.195 125.72ZM359.352 127C358.072 127 357.432 126.531 357.432 125.592C357.432 124.824 357.987 124.312 359.096 124.056L362.04 123.544C363.832 123.203 364.984 122.733 365.496 122.136C366.093 121.539 366.392 120.344 366.392 118.552V43.288C366.392 41.496 366.093 40.3013 365.496 39.704C364.984 39.1067 363.832 38.6373 362.04 38.296L359.096 37.784C357.987 37.528 357.432 37.016 357.432 36.248C357.432 35.3093 358.072 34.84 359.352 34.84H402.36C404.323 34.84 405.389 35.8213 405.56 37.784L406.584 59.032C406.755 60.4827 406.2 61.208 404.92 61.208C403.896 61.208 403.299 60.6533 403.128 59.544L402.36 54.808C401.421 49.0053 399.501 44.7813 396.6 42.136C393.699 39.4053 389.688 38.04 384.568 38.04C381.155 38.04 378.765 38.552 377.4 39.576C376.12 40.5147 375.48 42.2213 375.48 44.696V75.544C375.48 76.7387 376.077 77.336 377.272 77.336H383.672C387.427 77.336 389.731 75.3307 390.584 71.32L391.864 64.92C392.205 63.64 392.931 63.0853 394.04 63.256C394.979 63.4267 395.448 64.152 395.448 65.432V94.232C395.448 95.512 394.979 96.2373 394.04 96.408C392.931 96.5787 392.205 96.024 391.864 94.744L390.584 88.472C389.987 85.4853 389.133 83.5227 388.024 82.584C387 81.6453 385.507 81.176 383.544 81.176H377.272C376.077 81.176 375.48 81.7733 375.48 82.968V115.096C375.48 118.168 376.248 120.387 377.784 121.752C379.405 123.117 382.307 123.8 386.488 123.8C390.755 123.8 394.381 122.733 397.368 120.6C400.44 118.381 402.573 114.285 403.768 108.312L405.304 100.76C405.56 99.6507 406.2 99.096 407.224 99.096C408.419 99.096 408.931 99.8213 408.76 101.272L407.48 124.056C407.309 126.019 406.243 127 404.28 127H359.352ZM467.912 128.152C466.547 128.152 465.395 127.128 464.456 125.08L429.768 49.816C429.512 49.2187 429.171 48.9627 428.744 49.048C428.403 49.1333 428.232 49.5173 428.232 50.2V115.992C428.232 118.381 428.616 120.216 429.384 121.496C430.237 122.691 431.731 123.459 433.864 123.8L435.528 124.056C436.637 124.141 437.192 124.653 437.192 125.592C437.192 126.531 436.552 127 435.272 127H416.968C415.688 127 415.048 126.531 415.048 125.592C415.048 124.653 415.603 124.141 416.712 124.056L418.376 123.8C420.595 123.459 422.131 122.691 422.984 121.496C423.837 120.216 424.264 118.381 424.264 115.992V43.288C424.264 41.496 423.965 40.3013 423.368 39.704C422.856 39.1067 421.619 38.6373 419.656 38.296L416.712 37.784C415.603 37.528 415.048 37.016 415.048 36.248C415.048 35.3093 415.688 34.84 416.968 34.84H430.664C432.797 34.84 434.291 35.7787 435.144 37.656L465.352 104.088C465.608 104.6 465.907 104.813 466.248 104.728C466.675 104.643 466.888 104.344 466.888 103.832V45.848C466.888 43.1173 466.419 41.24 465.48 40.216C464.541 39.1067 463.347 38.424 461.896 38.168L459.592 37.784C458.483 37.528 457.928 37.016 457.928 36.248C457.928 35.3093 458.568 34.84 459.848 34.84H478.152C479.432 34.84 480.072 35.3093 480.072 36.248C480.072 37.1867 479.517 37.6987 478.408 37.784L476.744 38.04C474.525 38.3813 472.989 39.1067 472.136 40.216C471.283 41.24 470.856 43.1173 470.856 45.848V124.056C470.856 125.592 470.557 126.659 469.96 127.256C469.448 127.853 468.765 128.152 467.912 128.152Z" fill="#DFBB73"/>
<rect x="487.5" y="63.5" width="39" height="39" rx="19.5" stroke="#DFBB73"/>
<path d="M500.566 98C499.516 98 498.382 97.8478 497.163 97.5435C495.943 97.2729 494.792 96.7995 493.708 96.1232C492.625 95.413 491.727 94.4662 491.016 93.2826C490.339 92.099 490 90.6111 490 88.8188C490 86.7222 490.796 84.8116 492.388 83.087C494.013 81.3623 496.672 80.1957 500.363 79.587C499.076 76.7126 498.433 74.0749 498.433 71.6739C498.433 71.2343 498.517 70.5411 498.687 69.5942C498.856 68.6473 499.211 67.6667 499.753 66.6522C500.329 65.6377 501.176 64.7754 502.293 64.0652C503.411 63.3551 504.901 63 506.763 63C507.271 63 507.949 63.0676 508.795 63.2029C509.676 63.3043 510.539 63.4565 511.386 63.6594C512.267 63.8285 512.978 64.0483 513.52 64.3188L513.012 67.5145C511.894 66.6691 510.59 66.0604 509.1 65.6884C507.61 65.2826 506.239 65.0797 504.985 65.0797C504.139 65.6208 503.512 66.3647 503.106 67.3116C502.733 68.2585 502.547 69.3744 502.547 70.6594C502.547 72.4179 502.903 74.3961 503.614 76.5942C504.359 78.7923 505.426 81.0072 506.814 83.2391C508.203 85.4372 509.845 87.5 511.742 89.4275C512.656 87.9396 513.401 86.401 513.977 84.8116C514.552 83.2222 515.027 81.8188 515.399 80.6014C515.06 80.6014 514.722 80.6014 514.383 80.6014C514.078 80.6014 513.791 80.5845 513.52 80.5507V78.9783C515.01 78.9106 516.551 78.7754 518.142 78.5725C519.768 78.3696 521.105 78.1329 522.155 77.8623L521.292 80.3986C520.851 80.4662 520.327 80.5169 519.717 80.5507C519.107 80.5845 518.464 80.6184 517.787 80.6522C517.448 81.6667 516.906 83.1377 516.161 85.0652C515.416 86.9589 514.4 88.8527 513.113 90.7464C514.84 92.2343 516.703 93.4517 518.701 94.3985C520.699 95.3116 522.799 95.7681 525 95.7681L522.816 97.3406C520.682 97.3406 518.633 96.9686 516.669 96.2246C514.705 95.4807 512.859 94.4831 511.132 93.2319C509.879 94.5845 508.372 95.7174 506.611 96.6304C504.884 97.5435 502.869 98 500.566 98ZM502.039 95.6159C503.699 95.6159 505.155 95.2947 506.408 94.6522C507.695 94.0097 508.812 93.1812 509.761 92.1667C507.898 90.6449 506.222 88.9372 504.731 87.0435C503.275 85.1159 502.056 83.1715 501.074 81.2101C499.448 81.6498 498.145 82.2923 497.163 83.1377C496.18 83.9831 495.469 84.8961 495.029 85.8768C494.623 86.8575 494.419 87.8382 494.419 88.8188C494.419 90.4758 494.775 91.8116 495.486 92.8261C496.197 93.8068 497.129 94.5169 498.28 94.9565C499.465 95.3961 500.718 95.6159 502.039 95.6159Z" fill="#DFBB73"/>
<path d="M588.6 128.152C581.176 128.152 576.44 123.288 574.392 113.56L571.448 99.352C570.509 94.744 569.443 91.2453 568.248 88.856C567.139 86.4667 565.56 84.8453 563.512 83.992C561.549 83.1387 558.819 82.712 555.32 82.712C554.125 82.712 553.187 83.0533 552.504 83.736C551.821 84.3333 551.48 85.1013 551.48 86.04V118.04C551.48 119.832 551.821 121.069 552.504 121.752C553.187 122.349 554.723 122.861 557.112 123.288L561.848 124.056C562.787 124.227 563.256 124.696 563.256 125.464C563.256 126.488 562.616 127 561.336 127H535.352C534.072 127 533.432 126.531 533.432 125.592C533.432 124.824 533.987 124.312 535.096 124.056L538.04 123.544C539.832 123.203 540.984 122.733 541.496 122.136C542.093 121.539 542.392 120.344 542.392 118.552V43.288C542.392 41.496 542.093 40.3013 541.496 39.704C540.984 39.1067 539.832 38.6373 538.04 38.296L535.096 37.784C533.987 37.528 533.432 37.016 533.432 36.248C533.432 35.3093 534.072 34.84 535.352 34.84H561.336C566.371 34.84 570.851 35.8213 574.776 37.784C578.701 39.7467 581.773 42.4773 583.992 45.976C586.211 49.3893 587.32 53.3573 587.32 57.88C587.32 63.256 585.699 68.12 582.456 72.472C579.213 76.7387 575.117 79.768 570.168 81.56C569.571 81.7307 569.229 82.0293 569.144 82.456C569.144 82.7973 569.443 83.096 570.04 83.352C572.771 84.632 574.904 86.424 576.44 88.728C578.061 91.032 579.299 94.104 580.152 97.944L582.968 111C583.907 115.437 585.016 118.595 586.296 120.472C587.576 122.349 589.197 123.288 591.16 123.288C591.843 123.288 592.44 123.203 592.952 123.032C593.549 122.776 594.275 122.349 595.128 121.752C595.811 121.325 596.451 121.24 597.048 121.496C597.645 121.667 597.944 122.093 597.944 122.776C597.944 124.227 597.005 125.507 595.128 126.616C593.251 127.64 591.075 128.152 588.6 128.152ZM560.056 79.512C565.859 79.512 570.253 77.592 573.24 73.752C576.227 69.8267 577.72 64.6213 577.72 58.136C577.72 51.8213 575.971 46.9147 572.472 43.416C569.059 39.832 564.323 38.04 558.264 38.04C553.741 38.04 551.48 39.7467 551.48 43.16V72.472C551.48 77.1653 554.339 79.512 560.056 79.512ZM589.866 127C588.586 127 587.946 126.573 587.946 125.72C587.946 124.867 588.543 124.312 589.738 124.056L591.658 123.672C593.365 123.331 594.645 122.52 595.498 121.24C596.351 119.875 597.077 117.997 597.674 115.608L617.514 35.608C617.685 34.7547 617.941 34.2 618.282 33.944C618.709 33.688 619.093 33.56 619.434 33.56C619.861 33.56 620.245 33.688 620.586 33.944C621.013 34.2 621.311 34.7547 621.482 35.608L641.706 116.76C642.303 119.149 642.986 120.813 643.754 121.752C644.522 122.691 645.717 123.331 647.338 123.672L649.258 124.056C650.453 124.312 651.05 124.867 651.05 125.72C651.05 126.573 650.41 127 649.13 127H627.242C626.047 127 625.45 126.531 625.45 125.592C625.45 124.653 626.175 124.141 627.626 124.056L630.058 123.8C631.509 123.629 632.405 123.16 632.746 122.392C633.173 121.624 633.173 120.301 632.746 118.424L627.882 98.584C627.37 96.3653 625.962 95.256 623.658 95.256H610.218C607.999 95.256 606.591 96.3653 605.994 98.584L601.642 115.736C600.362 120.6 601.642 123.288 605.482 123.8L607.402 124.056C608.853 124.312 609.578 124.824 609.578 125.592C609.578 126.531 608.981 127 607.786 127H589.866ZM609.834 91.416H623.914C625.279 91.416 625.834 90.6907 625.578 89.24L617.386 54.936H616.746L608.17 89.24C607.914 90.6907 608.469 91.416 609.834 91.416ZM679.325 128.152C674.717 128.152 670.621 127.085 667.037 124.952C663.538 122.733 660.808 119.704 658.845 115.864C656.882 111.939 655.901 107.459 655.901 102.424V43.288C655.901 41.496 655.602 40.3013 655.005 39.704C654.493 39.1067 653.341 38.6373 651.549 38.296L648.605 37.784C647.496 37.528 646.941 37.016 646.941 36.248C646.941 35.3093 647.581 34.84 648.861 34.84H672.285C673.565 34.84 674.205 35.352 674.205 36.376C674.205 37.144 673.736 37.6133 672.797 37.784L669.341 38.296C667.634 38.552 666.482 39.0213 665.885 39.704C665.288 40.3867 664.989 41.624 664.989 43.416V102.552C664.989 109.037 666.44 114.072 669.341 117.656C672.242 121.24 676.296 123.032 681.501 123.032C686.792 123.032 690.888 121.24 693.789 117.656C696.69 114.072 698.141 109.037 698.141 102.552V45.976C698.141 41.368 696.69 38.808 693.789 38.296L690.333 37.784C689.394 37.6133 688.925 37.144 688.925 36.376C688.925 35.352 689.565 34.84 690.845 34.84H709.277C710.557 34.84 711.197 35.3093 711.197 36.248C711.197 37.016 710.642 37.528 709.533 37.784L706.589 38.296C703.688 38.808 702.237 41.3253 702.237 45.848V102.424C702.237 110.189 700.146 116.419 695.965 121.112C691.784 125.805 686.237 128.152 679.325 128.152ZM669.213 25.112C667.762 25.7093 666.781 25.5387 666.269 24.6C665.672 23.6613 666.056 22.7227 667.421 21.784L685.853 7.448C686.706 6.76533 687.517 6.25333 688.285 5.91199C689.053 5.57066 689.992 5.39999 691.101 5.39999C692.637 5.39999 693.832 5.86933 694.685 6.80799C695.538 7.66133 695.965 8.6 695.965 9.62399C695.965 10.7333 695.666 11.7147 695.069 12.568C694.557 13.336 693.533 14.0613 691.997 14.744L669.213 25.112ZM717.102 127C715.822 127 715.182 126.531 715.182 125.592C715.182 124.824 715.737 124.312 716.846 124.056L719.79 123.544C721.582 123.203 722.734 122.733 723.246 122.136C723.843 121.539 724.142 120.344 724.142 118.552V43.288C724.142 41.496 723.843 40.3013 723.246 39.704C722.734 39.1067 721.582 38.6373 719.79 38.296L716.846 37.784C715.737 37.528 715.182 37.016 715.182 36.248C715.182 35.3093 715.822 34.84 717.102 34.84H740.526C741.806 34.84 742.446 35.352 742.446 36.376C742.446 37.144 741.977 37.6133 741.038 37.784L737.582 38.296C735.79 38.552 734.595 39.0213 733.998 39.704C733.486 40.3867 733.23 41.624 733.23 43.416V115.096C733.23 118.168 734.083 120.387 735.79 121.752C737.582 123.117 739.801 123.8 742.446 123.8C744.409 123.8 746.414 123.416 748.462 122.648C750.595 121.795 752.515 120.259 754.222 118.04C755.929 115.736 757.209 112.408 758.062 108.056L759.726 99.48C759.982 98.3707 760.622 97.816 761.646 97.816C762.841 97.816 763.353 98.5413 763.182 99.992L761.646 124.056C761.475 126.019 760.409 127 758.446 127H717.102Z" fill="#DFBB73"/>
<path d="M790.96 94.5L798.96 84.228L791.344 73.316H795.344L800.656 82.116L807.312 73.316H809.264L801.36 83.108L809.712 94.5H805.712L799.696 85.156L792.912 94.5H790.96ZM820.512 95.012L811.008 73.316H814.496L821.536 90.66L827.872 73.316H829.472L821.024 95.012H820.512ZM832.661 94.5V73.316H835.605V94.5H832.661Z" fill="#DFBB73"/>
</svg>
