<svg width="311" height="251" viewBox="0 0 311 251" fill="none" xmlns="http://www.w3.org/2000/svg">
<path d="M134.997 17.0225L135.948 0H138.34L144.28 12.9854L149.962 0H152.585L153.537 17.0225H150.914L150.22 2.39137H150.117L143.637 17.0225H143.277L136.926 2.98279H136.823L136.128 17.0225H134.997Z" fill="#F7F1E1"/>
<path d="M157.848 17.0225L158.8 0H161.191L167.131 12.9854L172.813 0H175.436L176.388 17.0225H173.765L173.071 2.39137H172.968L166.488 17.0225H166.128L159.777 2.98279H159.674L158.98 17.0225H157.848Z" fill="#F7F1E1"/>
<path d="M137.14 250.589L143.568 242.335L137.448 233.566H140.662L144.931 240.637L150.279 233.566H151.848L145.497 241.435L152.208 250.589H148.994L144.159 243.08L138.708 250.589H137.14Z" fill="#F7F1E1"/>
<path d="M160.886 251L153.249 233.566H156.052L161.709 247.503L166.8 233.566H168.086L161.297 251H160.886Z" fill="#F7F1E1"/>
<path d="M170.649 250.589V233.566H173.014V250.589H170.649Z" fill="#F7F1E1"/>
<path d="M25.3023 109.223C20.2281 109.223 15.7711 107.646 11.9312 104.492C8.15981 101.338 5.21131 96.915 3.08564 91.2237C1.02855 85.4638 0 78.6754 0 70.8585C0 63.3158 1.1314 56.7331 3.39421 51.1103C5.72558 45.4191 8.81122 41.0306 12.6511 37.9449C16.5596 34.7907 20.8795 33.2136 25.6108 33.2136C28.4222 33.2136 30.8907 33.4879 33.0164 34.0365C35.142 34.5164 37.0277 35.1679 38.6734 35.9907C39.4962 36.4707 39.9076 37.1907 39.9076 38.1506L40.2162 53.7846C40.2162 54.9503 39.8048 55.5331 38.982 55.5331C38.2277 55.5331 37.7477 55.0874 37.542 54.196L36.5134 50.3904C35.0735 45.0419 33.3935 41.3391 31.4736 39.2821C29.6222 37.225 27.3937 36.1964 24.788 36.1964C19.9881 36.1964 15.9768 39.1792 12.754 45.1448C9.59978 51.0418 8.02267 59.613 8.02267 70.8585C8.02267 78.5383 8.81122 85.0181 10.3883 90.298C12.034 95.5779 14.1254 99.5549 16.6625 102.229C19.2681 104.903 22.0109 106.241 24.8909 106.241C27.9765 106.241 30.445 105.281 32.2964 103.361C34.2164 101.441 35.8277 97.7378 37.1306 92.2523L38.3648 87.2124C38.5705 86.1838 39.1191 85.7381 40.0105 85.8753C40.7648 86.0124 41.1419 86.5952 41.1419 87.6238L40.7305 104.286C40.7305 105.246 40.2848 105.966 39.3934 106.446C37.7477 107.269 35.7935 107.92 33.5307 108.4C31.3364 108.949 28.5936 109.223 25.3023 109.223Z" fill="#F7F1E1"/>
<path d="M43.7904 108.298C42.7619 108.298 42.2476 107.955 42.2476 107.269C42.2476 106.583 42.7276 106.138 43.6876 105.932L45.2304 105.623C46.6018 105.349 47.6303 104.698 48.316 103.669C49.0017 102.572 49.5846 101.063 50.0646 99.1435L66.007 34.8593C66.1442 34.1736 66.3499 33.7279 66.6242 33.5222C66.967 33.3165 67.2756 33.2136 67.5499 33.2136C67.8927 33.2136 68.2013 33.3165 68.4756 33.5222C68.8184 33.7279 69.0584 34.1736 69.1955 34.8593L85.4466 100.069C85.9266 101.989 86.4751 103.326 87.0923 104.081C87.7094 104.835 88.6694 105.349 89.9722 105.623L91.515 105.932C92.475 106.138 92.955 106.583 92.955 107.269C92.955 107.955 92.4407 108.298 91.4122 108.298H73.824C72.864 108.298 72.384 107.92 72.384 107.166C72.384 106.412 72.9669 106.001 74.1326 105.932L76.0868 105.726C77.2525 105.589 77.9725 105.212 78.2468 104.595C78.5896 103.978 78.5896 102.915 78.2468 101.406L74.3383 85.4638C73.9269 83.681 72.7955 82.7896 70.9441 82.7896H60.1443C58.3615 82.7896 57.2301 83.681 56.7501 85.4638L53.2531 99.2464C52.2245 103.155 53.2531 105.315 56.3387 105.726L57.8815 105.932C59.0472 106.138 59.6301 106.549 59.6301 107.166C59.6301 107.92 59.1501 108.298 58.1901 108.298H43.7904ZM59.8358 79.704H71.1498C72.2469 79.704 72.6926 79.1211 72.4869 77.9554L65.9042 50.3904H65.3899L58.4986 77.9554C58.2929 79.1211 58.7386 79.704 59.8358 79.704Z" fill="#F7F1E1"/>
<path d="M136.387 109.223C130.421 109.223 126.616 105.315 124.97 97.4978L122.604 86.081C121.85 82.3782 120.993 79.5668 120.033 77.6469C119.142 75.7269 117.873 74.4241 116.227 73.7384C114.65 73.0527 112.456 72.7099 109.645 72.7099C108.685 72.7099 107.931 72.9841 107.382 73.5327C106.833 74.0127 106.559 74.6298 106.559 75.3841V101.098C106.559 102.538 106.833 103.532 107.382 104.081C107.931 104.561 109.165 104.972 111.085 105.315L114.89 105.932C115.645 106.069 116.022 106.446 116.022 107.063C116.022 107.886 115.508 108.298 114.479 108.298H93.5994C92.5709 108.298 92.0566 107.92 92.0566 107.166C92.0566 106.549 92.5023 106.138 93.3937 105.932L95.7594 105.521C97.1994 105.246 98.125 104.869 98.5365 104.389C99.0164 103.909 99.2565 102.949 99.2565 101.509V41.0306C99.2565 39.5906 99.0164 38.6306 98.5365 38.1506C98.125 37.6707 97.1994 37.2935 95.7594 37.0192L93.3937 36.6078C92.5023 36.4021 92.0566 35.9907 92.0566 35.3736C92.0566 34.6193 92.5709 34.2422 93.5994 34.2422H114.479C118.525 34.2422 122.124 35.0307 125.279 36.6078C128.433 38.1849 130.901 40.3792 132.684 43.1905C134.467 45.9333 135.358 49.1218 135.358 52.756C135.358 57.0759 134.056 60.9844 131.45 64.4815C128.844 67.91 125.553 70.3442 121.576 71.7842C121.096 71.9213 120.822 72.1613 120.753 72.5041C120.753 72.7784 120.993 73.0184 121.473 73.2241C123.667 74.2527 125.382 75.6926 126.616 77.544C127.919 79.3954 128.913 81.8639 129.599 84.9496L131.861 95.4408C132.616 99.0064 133.507 101.543 134.536 103.052C135.564 104.561 136.867 105.315 138.444 105.315C138.993 105.315 139.473 105.246 139.884 105.109C140.364 104.903 140.947 104.561 141.633 104.081C142.181 103.738 142.695 103.669 143.175 103.875C143.655 104.012 143.895 104.355 143.895 104.903C143.895 106.069 143.141 107.098 141.633 107.989C140.124 108.812 138.376 109.223 136.387 109.223ZM113.45 70.1385C118.113 70.1385 121.645 68.5957 124.044 65.51C126.444 62.3558 127.644 58.173 127.644 52.9617C127.644 47.8876 126.239 43.9448 123.427 41.1334C120.685 38.2535 116.879 36.8135 112.01 36.8135C108.376 36.8135 106.559 38.1849 106.559 40.9277V64.4815C106.559 68.2528 108.856 70.1385 113.45 70.1385Z" fill="#F7F1E1"/>
<path d="M175.235 107.269C174.961 107.269 174.652 107.166 174.309 106.96C173.966 106.755 173.726 106.309 173.589 105.623L158.058 42.5734C157.989 42.0934 157.784 41.8877 157.441 41.9563C157.098 41.9563 156.927 42.1963 156.927 42.6763L154.87 99.4521C154.801 101.372 155.11 102.846 155.795 103.875C156.481 104.835 157.681 105.452 159.395 105.726L160.732 105.932C161.624 106.001 162.069 106.412 162.069 107.166C162.069 107.92 161.555 108.298 160.527 108.298H145.818C144.79 108.298 144.275 107.92 144.275 107.166C144.275 106.412 144.721 106.001 145.613 105.932L146.95 105.726C148.733 105.452 149.933 104.835 150.55 103.875C151.235 102.846 151.612 101.372 151.681 99.4521L153.738 41.0306C153.807 39.5906 153.601 38.6306 153.121 38.1506C152.641 37.6707 151.612 37.2935 150.035 37.0192L147.67 36.6078C146.778 36.4021 146.333 35.9907 146.333 35.3736C146.333 34.6193 146.847 34.2422 147.875 34.2422H160.218C162.344 34.2422 163.646 35.2707 164.126 37.3278L176.572 88.6523C176.709 89.1323 176.915 89.3723 177.189 89.3723C177.532 89.3723 177.738 89.1323 177.806 88.6523L190.766 36.8135C191.177 35.0993 192.274 34.2422 194.057 34.2422H206.194C207.223 34.2422 207.737 34.6193 207.737 35.3736C207.737 35.9907 207.291 36.4021 206.4 36.6078L204.034 37.0192C202.594 37.2935 201.634 37.6707 201.154 38.1506C200.674 38.6306 200.468 39.5906 200.537 41.0306L202.594 101.509C202.663 102.949 202.903 103.909 203.314 104.389C203.726 104.869 204.651 105.246 206.091 105.521L208.457 105.932C209.348 106.138 209.794 106.549 209.794 107.166C209.794 107.92 209.28 108.298 208.251 108.298H189.634C188.606 108.298 188.092 107.92 188.092 107.166C188.092 106.549 188.537 106.138 189.429 105.932L191.794 105.521C193.234 105.246 194.194 104.869 194.674 104.389C195.154 103.909 195.36 102.949 195.291 101.509L193.543 42.6763C193.543 42.1963 193.371 41.9563 193.029 41.9563C192.754 41.8877 192.549 42.0591 192.412 42.4705L176.778 105.623C176.64 106.309 176.4 106.755 176.058 106.96C175.783 107.166 175.509 107.269 175.235 107.269Z" fill="#F7F1E1"/>
<path d="M213.931 108.298C212.903 108.298 212.389 107.92 212.389 107.166C212.389 106.549 212.834 106.138 213.726 105.932L216.091 105.521C217.531 105.246 218.457 104.869 218.868 104.389C219.348 103.909 219.588 102.949 219.588 101.509V41.0306C219.588 39.5906 219.348 38.6306 218.868 38.1506C218.457 37.6707 217.531 37.2935 216.091 37.0192L213.726 36.6078C212.834 36.4021 212.389 35.9907 212.389 35.3736C212.389 34.6193 212.903 34.2422 213.931 34.2422H248.491C250.068 34.2422 250.925 35.0307 251.062 36.6078L251.885 53.6817C252.022 54.8474 251.576 55.4303 250.548 55.4303C249.725 55.4303 249.245 54.9845 249.108 54.0931L248.491 50.2875C247.736 45.6248 246.194 42.2306 243.862 40.1049C241.531 37.9107 238.308 36.8135 234.194 36.8135C231.451 36.8135 229.531 37.225 228.434 38.0478C227.405 38.8021 226.891 40.1735 226.891 42.162V66.95C226.891 67.91 227.371 68.3899 228.331 68.3899H233.474C236.491 68.3899 238.342 66.7786 239.028 63.5558L240.057 58.413C240.331 57.3845 240.914 56.9388 241.805 57.0759C242.559 57.2131 242.937 57.7959 242.937 58.8245V81.9668C242.937 82.9953 242.559 83.5782 241.805 83.7153C240.914 83.8525 240.331 83.4067 240.057 82.3782L239.028 77.3383C238.548 74.9384 237.862 73.3613 236.971 72.607C236.148 71.8527 234.948 71.4756 233.371 71.4756H228.331C227.371 71.4756 226.891 71.9556 226.891 72.9156V98.7321C226.891 101.201 227.508 102.983 228.743 104.081C230.045 105.178 232.377 105.726 235.737 105.726C239.165 105.726 242.079 104.869 244.479 103.155C246.948 101.372 248.662 98.0807 249.622 93.2808L250.856 87.2124C251.062 86.321 251.576 85.8753 252.399 85.8753C253.359 85.8753 253.771 86.4581 253.633 87.6238L252.605 105.932C252.468 107.509 251.611 108.298 250.033 108.298H213.931Z" fill="#F7F1E1"/>
<path d="M301.165 109.223C300.068 109.223 299.142 108.4 298.388 106.755L270.514 46.2762C270.309 45.7962 270.034 45.5905 269.692 45.659C269.417 45.7276 269.28 46.0362 269.28 46.5847V99.4521C269.28 101.372 269.589 102.846 270.206 103.875C270.892 104.835 272.092 105.452 273.806 105.726L275.143 105.932C276.034 106.001 276.48 106.412 276.48 107.166C276.48 107.92 275.966 108.298 274.937 108.298H260.229C259.2 108.298 258.686 107.92 258.686 107.166C258.686 106.412 259.132 106.001 260.023 105.932L261.36 105.726C263.143 105.452 264.377 104.835 265.063 103.875C265.749 102.846 266.092 101.372 266.092 99.4521V41.0306C266.092 39.5906 265.852 38.6306 265.372 38.1506C264.96 37.6707 263.966 37.2935 262.389 37.0192L260.023 36.6078C259.132 36.4021 258.686 35.9907 258.686 35.3736C258.686 34.6193 259.2 34.2422 260.229 34.2422H271.234C272.949 34.2422 274.149 34.9964 274.834 36.505L299.108 89.8866C299.314 90.298 299.554 90.4694 299.828 90.4009C300.171 90.3323 300.342 90.0923 300.342 89.6809V43.0877C300.342 40.8934 299.965 39.3849 299.211 38.5621C298.457 37.6707 297.497 37.1221 296.331 36.9164L294.48 36.6078C293.588 36.4021 293.142 35.9907 293.142 35.3736C293.142 34.6193 293.657 34.2422 294.685 34.2422H309.394C310.422 34.2422 310.936 34.6193 310.936 35.3736C310.936 36.1278 310.491 36.5393 309.599 36.6078L308.262 36.8135C306.479 37.0878 305.245 37.6707 304.559 38.5621C303.874 39.3849 303.531 40.8934 303.531 43.0877V105.932C303.531 107.166 303.291 108.023 302.811 108.503C302.399 108.983 301.851 109.223 301.165 109.223Z" fill="#F7F1E1"/>
<path d="M134.327 217.649C128.362 217.649 124.556 213.741 122.911 205.924L120.545 194.507C119.791 190.804 118.934 187.993 117.974 186.073C117.082 184.153 115.814 182.85 114.168 182.164C112.591 181.479 110.397 181.136 107.585 181.136C106.625 181.136 105.871 181.41 105.322 181.959C104.774 182.439 104.5 183.056 104.5 183.81V209.524C104.5 210.964 104.774 211.958 105.322 212.506C105.871 212.986 107.105 213.398 109.025 213.741L112.831 214.358C113.585 214.495 113.962 214.872 113.962 215.489C113.962 216.312 113.448 216.724 112.419 216.724H91.5399C90.5113 216.724 89.9971 216.346 89.9971 215.592C89.9971 214.975 90.4428 214.564 91.3342 214.358L93.6998 213.946C95.1398 213.672 96.0655 213.295 96.4769 212.815C96.9569 212.335 97.1969 211.375 97.1969 209.935V149.456C97.1969 148.017 96.9569 147.057 96.4769 146.577C96.0655 146.097 95.1398 145.719 93.6998 145.445L91.3342 145.034C90.4428 144.828 89.9971 144.417 89.9971 143.799C89.9971 143.045 90.5113 142.668 91.5399 142.668H112.419C116.465 142.668 120.065 143.457 123.219 145.034C126.373 146.611 128.842 148.805 130.625 151.616C132.408 154.359 133.299 157.548 133.299 161.182C133.299 165.502 131.996 169.41 129.39 172.907C126.785 176.336 123.493 178.77 119.516 180.21C119.036 180.347 118.762 180.587 118.694 180.93C118.694 181.204 118.934 181.444 119.414 181.65C121.608 182.679 123.322 184.119 124.556 185.97C125.859 187.821 126.853 190.29 127.539 193.375L129.802 203.867C130.556 207.432 131.448 209.969 132.476 211.478C133.505 212.986 134.807 213.741 136.385 213.741C136.933 213.741 137.413 213.672 137.825 213.535C138.305 213.329 138.887 212.986 139.573 212.506C140.122 212.164 140.636 212.095 141.116 212.301C141.596 212.438 141.836 212.781 141.836 213.329C141.836 214.495 141.082 215.524 139.573 216.415C138.065 217.238 136.316 217.649 134.327 217.649ZM111.391 178.564C116.054 178.564 119.585 177.022 121.985 173.936C124.385 170.782 125.585 166.599 125.585 161.388C125.585 156.313 124.179 152.371 121.368 149.559C118.625 146.679 114.819 145.239 109.951 145.239C106.317 145.239 104.5 146.611 104.5 149.354V172.907C104.5 176.679 106.797 178.564 111.391 178.564Z" fill="#F7F1E1"/>
<path d="M135.345 216.724C134.316 216.724 133.802 216.381 133.802 215.695C133.802 215.009 134.282 214.564 135.242 214.358L136.785 214.049C138.156 213.775 139.185 213.124 139.87 212.095C140.556 210.998 141.139 209.489 141.619 207.569L157.561 143.285C157.699 142.6 157.904 142.154 158.179 141.948C158.521 141.742 158.83 141.64 159.104 141.64C159.447 141.64 159.756 141.742 160.03 141.948C160.373 142.154 160.613 142.6 160.75 143.285L177.001 208.495C177.481 210.415 178.029 211.752 178.647 212.506C179.264 213.261 180.224 213.775 181.527 214.049L183.069 214.358C184.029 214.564 184.509 215.009 184.509 215.695C184.509 216.381 183.995 216.724 182.967 216.724H165.378C164.418 216.724 163.938 216.346 163.938 215.592C163.938 214.838 164.521 214.426 165.687 214.358L167.641 214.152C168.807 214.015 169.527 213.638 169.801 213.021C170.144 212.404 170.144 211.341 169.801 209.832L165.893 193.89C165.481 192.107 164.35 191.216 162.498 191.216H151.699C149.916 191.216 148.784 192.107 148.304 193.89L144.807 207.672C143.779 211.581 144.807 213.741 147.893 214.152L149.436 214.358C150.602 214.564 151.184 214.975 151.184 215.592C151.184 216.346 150.704 216.724 149.744 216.724H135.345ZM151.39 188.13H162.704C163.801 188.13 164.247 187.547 164.041 186.381L157.459 158.816H156.944L150.053 186.381C149.847 187.547 150.293 188.13 151.39 188.13Z" fill="#F7F1E1"/>
<path d="M207.23 217.649C203.527 217.649 200.236 216.792 197.356 215.078C194.544 213.295 192.35 210.861 190.773 207.775C189.196 204.621 188.407 201.021 188.407 196.975V149.456C188.407 148.017 188.167 147.057 187.687 146.577C187.276 146.097 186.35 145.719 184.91 145.445L182.545 145.034C181.653 144.828 181.208 144.417 181.208 143.799C181.208 143.045 181.722 142.668 182.75 142.668H201.573C202.601 142.668 203.116 143.079 203.116 143.902C203.116 144.519 202.738 144.897 201.984 145.034L199.207 145.445C197.836 145.651 196.91 146.028 196.43 146.577C195.95 147.125 195.71 148.119 195.71 149.559V197.078C195.71 202.29 196.876 206.335 199.207 209.215C201.539 212.095 204.796 213.535 208.978 213.535C213.23 213.535 216.521 212.095 218.852 209.215C221.184 206.335 222.349 202.29 222.349 197.078V151.616C222.349 147.914 221.184 145.857 218.852 145.445L216.075 145.034C215.321 144.897 214.944 144.519 214.944 143.902C214.944 143.079 215.458 142.668 216.487 142.668H231.298C232.326 142.668 232.841 143.045 232.841 143.799C232.841 144.417 232.395 144.828 231.504 145.034L229.138 145.445C226.806 145.857 225.641 147.879 225.641 151.514V196.975C225.641 203.215 223.961 208.221 220.601 211.992C217.241 215.764 212.784 217.649 207.23 217.649ZM199.104 134.851C197.939 135.331 197.15 135.194 196.739 134.44C196.259 133.685 196.567 132.931 197.664 132.177L212.475 120.657C213.161 120.109 213.813 119.697 214.43 119.423C215.047 119.149 215.801 119.011 216.692 119.011C217.927 119.011 218.887 119.389 219.572 120.143C220.258 120.829 220.601 121.583 220.601 122.406C220.601 123.297 220.361 124.086 219.881 124.771C219.47 125.388 218.647 125.971 217.412 126.52L199.104 134.851Z" fill="#F7F1E1"/>
<path d="M237.586 216.724C236.557 216.724 236.043 216.346 236.043 215.592C236.043 214.975 236.488 214.564 237.38 214.358L239.746 213.946C241.186 213.672 242.111 213.295 242.523 212.815C243.003 212.335 243.243 211.375 243.243 209.935V149.456C243.243 148.017 243.003 147.057 242.523 146.577C242.111 146.097 241.186 145.719 239.746 145.445L237.38 145.034C236.488 144.828 236.043 144.417 236.043 143.799C236.043 143.045 236.557 142.668 237.586 142.668H256.408C257.437 142.668 257.951 143.079 257.951 143.902C257.951 144.519 257.574 144.897 256.819 145.034L254.042 145.445C252.602 145.651 251.642 146.028 251.162 146.577C250.751 147.125 250.545 148.119 250.545 149.559V207.158C250.545 209.627 251.231 211.409 252.602 212.506C254.042 213.604 255.825 214.152 257.951 214.152C259.528 214.152 261.139 213.844 262.785 213.226C264.499 212.541 266.042 211.306 267.413 209.524C268.785 207.672 269.813 204.998 270.499 201.501L271.836 194.61C272.042 193.718 272.556 193.273 273.379 193.273C274.339 193.273 274.75 193.855 274.613 195.021L273.379 214.358C273.242 215.935 272.385 216.724 270.808 216.724H237.586Z" fill="#F7F1E1"/>
<path d="M58.9277 118C71.3538 118 81.4277 128.313 81.4277 141.035L81.4199 141.63C81.2937 146.731 79.5463 151.419 76.6875 155.177C76.8384 155.18 76.9898 155.183 77.1416 155.183L76.1143 155.901C71.9871 160.898 65.8195 164.07 58.9277 164.07C51.7389 164.07 45.3377 160.618 41.2188 155.245C40.2046 154.507 39.3481 153.573 38.6504 152.443C37.9608 151.271 37.5823 149.827 37.5127 148.112C36.8102 145.882 36.4287 143.504 36.4287 141.035C36.4287 128.313 46.5018 118 58.9277 118ZM61.4346 152.388C60.0155 153.878 58.3088 155.127 56.3145 156.133C54.3583 157.139 52.0759 157.642 49.4678 157.642C48.3294 157.642 47.1032 157.486 45.7891 157.179C49.353 160.234 53.9387 162.07 58.9277 162.07C64.1192 162.07 68.8738 160.082 72.4951 156.801C70.8523 156.628 69.2558 156.257 67.7061 155.686C65.4814 154.866 63.3908 153.767 61.4346 152.388ZM50.043 139.14C48.2018 139.624 46.7247 140.332 45.6123 141.264C44.5 142.195 43.6949 143.202 43.1963 144.282C42.736 145.363 42.5059 146.444 42.5059 147.524C42.5059 149.35 42.9084 150.822 43.7139 151.94C44.5193 153.021 45.574 153.804 46.8779 154.288C48.2204 154.773 49.6399 155.015 51.1357 155.015C53.0152 155.015 54.6648 154.661 56.084 153.953C57.5414 153.245 58.8069 152.332 59.8809 151.214C57.7713 149.537 55.8732 147.654 54.1855 145.567C52.5363 143.443 51.1553 141.301 50.043 139.14ZM63.5635 124.047C62.2978 123.115 60.8213 122.444 59.1338 122.034C57.4461 121.587 55.8919 121.363 54.4727 121.363C53.5138 121.96 52.804 122.78 52.3438 123.823C51.9219 124.867 51.7109 126.097 51.7109 127.513C51.711 129.45 52.1145 131.631 52.9199 134.053C53.7637 136.475 54.9715 138.916 56.5439 141.375C58.1166 143.797 59.977 146.071 62.125 148.195C63.1606 146.556 64.0052 144.86 64.6572 143.108C65.3093 141.357 65.8457 139.81 66.2676 138.469H65.1172C64.772 138.469 64.4455 138.45 64.1387 138.413V136.68C65.8264 136.605 67.5722 136.456 69.375 136.232C71.2159 136.009 72.7309 135.748 73.9199 135.45L72.9414 138.245C72.4429 138.32 71.8484 138.376 71.1582 138.413C70.4678 138.45 69.7388 138.487 68.9717 138.524C68.5881 139.642 67.9747 141.264 67.1309 143.388C66.287 145.475 65.1363 147.562 63.6787 149.648C65.6349 151.288 67.7448 152.629 70.0078 153.673C71.394 154.289 72.8233 154.716 74.2959 154.955C77.4857 151.252 79.4277 146.385 79.4277 141.035C79.4277 131.224 72.9003 123.033 64.1133 120.68L63.5635 124.047ZM48.7432 122.777C42.5912 126.398 38.4287 133.2 38.4287 141.035C38.4287 141.844 38.4743 142.641 38.5605 143.425C38.9825 142.657 39.5304 141.918 40.2041 141.208C42.0452 139.307 45.0564 138.021 49.2373 137.351C47.7797 134.183 47.0508 131.276 47.0508 128.63C47.0508 128.145 47.1472 127.382 47.3389 126.339C47.5306 125.295 47.9332 124.215 48.5469 123.097C48.6097 122.989 48.6746 122.882 48.7432 122.777Z" fill="#F7F1E1"/>
</svg>
