<svg width="304" height="307" viewBox="0 0 304 307" fill="none" xmlns="http://www.w3.org/2000/svg">
<path d="M132.468 22L133.356 6.112H135.588L141.132 18.232L146.436 6.112H148.884L149.772 22H147.324L146.676 8.344H146.58L140.532 22H140.196L134.268 8.896H134.172L133.524 22H132.468ZM153.796 22L154.684 6.112H156.916L162.46 18.232L167.764 6.112H170.212L171.1 22H168.652L168.004 8.344H167.908L161.86 22H161.524L155.596 8.896H155.5L154.852 22H153.796Z" fill="#9C8E76"/>
<path d="M31.456 131.864C26.72 131.864 22.56 130.392 18.976 127.448C15.456 124.504 12.704 120.376 10.72 115.064C8.8 109.688 7.84 103.352 7.84 96.056C7.84 89.016 8.896 82.872 11.008 77.624C13.184 72.312 16.064 68.216 19.648 65.336C23.296 62.392 27.328 60.92 31.744 60.92C34.368 60.92 36.672 61.176 38.656 61.688C40.64 62.136 42.4 62.744 43.936 63.512C44.704 63.96 45.088 64.632 45.088 65.528L45.376 80.12C45.376 81.208 44.992 81.752 44.224 81.752C43.52 81.752 43.072 81.336 42.88 80.504L41.92 76.952C40.576 71.96 39.008 68.504 37.216 66.584C35.488 64.664 33.408 63.704 30.976 63.704C26.496 63.704 22.752 66.488 19.744 72.056C16.8 77.56 15.328 85.56 15.328 96.056C15.328 103.224 16.064 109.272 17.536 114.2C19.072 119.128 21.024 122.84 23.392 125.336C25.824 127.832 28.384 129.08 31.072 129.08C33.952 129.08 36.256 128.184 37.984 126.392C39.776 124.6 41.28 121.144 42.496 116.024L43.648 111.32C43.84 110.36 44.352 109.944 45.184 110.072C45.888 110.2 46.24 110.744 46.24 111.704L45.856 127.256C45.856 128.152 45.44 128.824 44.608 129.272C43.072 130.04 41.248 130.648 39.136 131.096C37.088 131.608 34.528 131.864 31.456 131.864ZM48.712 131C47.752 131 47.272 130.68 47.272 130.04C47.272 129.4 47.72 128.984 48.616 128.792L50.056 128.504C51.336 128.248 52.296 127.64 52.936 126.68C53.576 125.656 54.12 124.248 54.568 122.456L69.448 62.456C69.576 61.816 69.768 61.4 70.024 61.208C70.344 61.016 70.632 60.92 70.888 60.92C71.208 60.92 71.496 61.016 71.752 61.208C72.072 61.4 72.296 61.816 72.424 62.456L87.592 123.32C88.04 125.112 88.552 126.36 89.128 127.064C89.704 127.768 90.6 128.248 91.816 128.504L93.256 128.792C94.152 128.984 94.6 129.4 94.6 130.04C94.6 130.68 94.12 131 93.16 131H76.744C75.848 131 75.4 130.648 75.4 129.944C75.4 129.24 75.944 128.856 77.032 128.792L78.856 128.6C79.944 128.472 80.616 128.12 80.872 127.544C81.192 126.968 81.192 125.976 80.872 124.568L77.224 109.688C76.84 108.024 75.784 107.192 74.056 107.192H63.976C62.312 107.192 61.256 108.024 60.808 109.688L57.544 122.552C56.584 126.2 57.544 128.216 60.424 128.6L61.864 128.792C62.952 128.984 63.496 129.368 63.496 129.944C63.496 130.648 63.048 131 62.152 131H48.712ZM63.688 104.312H74.248C75.272 104.312 75.688 103.768 75.496 102.68L69.352 76.952H68.872L62.44 102.68C62.248 103.768 62.664 104.312 63.688 104.312ZM135.138 131.864C129.57 131.864 126.018 128.216 124.482 120.92L122.274 110.264C121.57 106.808 120.77 104.184 119.874 102.392C119.042 100.6 117.858 99.384 116.322 98.744C114.85 98.104 112.802 97.784 110.178 97.784C109.282 97.784 108.578 98.04 108.066 98.552C107.554 99 107.298 99.576 107.298 100.28V124.28C107.298 125.624 107.554 126.552 108.066 127.064C108.578 127.512 109.73 127.896 111.522 128.216L115.074 128.792C115.778 128.92 116.13 129.272 116.13 129.848C116.13 130.616 115.65 131 114.69 131H95.2015C94.2415 131 93.7615 130.648 93.7615 129.944C93.7615 129.368 94.1775 128.984 95.0095 128.792L97.2175 128.408C98.5615 128.152 99.4255 127.8 99.8095 127.352C100.258 126.904 100.482 126.008 100.482 124.664V68.216C100.482 66.872 100.258 65.976 99.8095 65.528C99.4255 65.08 98.5615 64.728 97.2175 64.472L95.0095 64.088C94.1775 63.896 93.7615 63.512 93.7615 62.936C93.7615 62.232 94.2415 61.88 95.2015 61.88H114.69C118.466 61.88 121.826 62.616 124.77 64.088C127.714 65.56 130.018 67.608 131.682 70.232C133.346 72.792 134.178 75.768 134.178 79.16C134.178 83.192 132.962 86.84 130.53 90.104C128.098 93.304 125.026 95.576 121.314 96.92C120.866 97.048 120.61 97.272 120.546 97.592C120.546 97.848 120.77 98.072 121.218 98.264C123.266 99.224 124.866 100.568 126.018 102.296C127.234 104.024 128.162 106.328 128.802 109.208L130.914 119C131.618 122.328 132.45 124.696 133.41 126.104C134.37 127.512 135.586 128.216 137.058 128.216C137.57 128.216 138.018 128.152 138.402 128.024C138.85 127.832 139.394 127.512 140.034 127.064C140.546 126.744 141.026 126.68 141.474 126.872C141.922 127 142.146 127.32 142.146 127.832C142.146 128.92 141.442 129.88 140.034 130.712C138.626 131.48 136.994 131.864 135.138 131.864ZM113.73 95.384C118.082 95.384 121.378 93.944 123.618 91.064C125.858 88.12 126.978 84.216 126.978 79.352C126.978 74.616 125.666 70.936 123.042 68.312C120.482 65.624 116.93 64.28 112.386 64.28C108.994 64.28 107.298 65.56 107.298 68.12V90.104C107.298 93.624 109.442 95.384 113.73 95.384ZM171.396 130.04C171.14 130.04 170.852 129.944 170.532 129.752C170.212 129.56 169.988 129.144 169.86 128.504L155.364 69.656C155.3 69.208 155.108 69.016 154.788 69.08C154.468 69.08 154.308 69.304 154.308 69.752L152.388 122.744C152.324 124.536 152.612 125.912 153.252 126.872C153.892 127.768 155.012 128.344 156.612 128.6L157.86 128.792C158.692 128.856 159.108 129.24 159.108 129.944C159.108 130.648 158.628 131 157.668 131H143.94C142.98 131 142.5 130.648 142.5 129.944C142.5 129.24 142.916 128.856 143.748 128.792L144.996 128.6C146.66 128.344 147.78 127.768 148.356 126.872C148.996 125.912 149.348 124.536 149.412 122.744L151.332 68.216C151.396 66.872 151.204 65.976 150.756 65.528C150.308 65.08 149.348 64.728 147.876 64.472L145.668 64.088C144.836 63.896 144.42 63.512 144.42 62.936C144.42 62.232 144.9 61.88 145.86 61.88H157.38C159.364 61.88 160.58 62.84 161.028 64.76L172.644 112.664C172.772 113.112 172.964 113.336 173.22 113.336C173.54 113.336 173.732 113.112 173.796 112.664L185.892 64.28C186.276 62.68 187.3 61.88 188.964 61.88H200.292C201.252 61.88 201.732 62.232 201.732 62.936C201.732 63.512 201.316 63.896 200.484 64.088L198.276 64.472C196.932 64.728 196.036 65.08 195.588 65.528C195.14 65.976 194.948 66.872 195.012 68.216L196.932 124.664C196.996 126.008 197.22 126.904 197.604 127.352C197.988 127.8 198.852 128.152 200.196 128.408L202.404 128.792C203.236 128.984 203.652 129.368 203.652 129.944C203.652 130.648 203.172 131 202.212 131H184.836C183.876 131 183.396 130.648 183.396 129.944C183.396 129.368 183.812 128.984 184.644 128.792L186.852 128.408C188.196 128.152 189.092 127.8 189.54 127.352C189.988 126.904 190.18 126.008 190.116 124.664L188.484 69.752C188.484 69.304 188.324 69.08 188.004 69.08C187.748 69.016 187.556 69.176 187.428 69.56L172.836 128.504C172.708 129.144 172.484 129.56 172.164 129.752C171.908 129.944 171.652 130.04 171.396 130.04ZM207.514 131C206.554 131 206.074 130.648 206.074 129.944C206.074 129.368 206.49 128.984 207.322 128.792L209.53 128.408C210.874 128.152 211.738 127.8 212.122 127.352C212.57 126.904 212.794 126.008 212.794 124.664V68.216C212.794 66.872 212.57 65.976 212.122 65.528C211.738 65.08 210.874 64.728 209.53 64.472L207.322 64.088C206.49 63.896 206.074 63.512 206.074 62.936C206.074 62.232 206.554 61.88 207.514 61.88H239.77C241.242 61.88 242.042 62.616 242.17 64.088L242.938 80.024C243.066 81.112 242.65 81.656 241.69 81.656C240.922 81.656 240.474 81.24 240.346 80.408L239.77 76.856C239.066 72.504 237.626 69.336 235.45 67.352C233.274 65.304 230.266 64.28 226.426 64.28C223.866 64.28 222.074 64.664 221.05 65.432C220.09 66.136 219.61 67.416 219.61 69.272V92.408C219.61 93.304 220.058 93.752 220.954 93.752H225.754C228.57 93.752 230.298 92.248 230.938 89.24L231.898 84.44C232.154 83.48 232.698 83.064 233.53 83.192C234.234 83.32 234.586 83.864 234.586 84.824V106.424C234.586 107.384 234.234 107.928 233.53 108.056C232.698 108.184 232.154 107.768 231.898 106.808L230.938 102.104C230.49 99.864 229.85 98.392 229.018 97.688C228.25 96.984 227.13 96.632 225.658 96.632H220.954C220.058 96.632 219.61 97.08 219.61 97.976V122.072C219.61 124.376 220.186 126.04 221.338 127.064C222.554 128.088 224.73 128.6 227.866 128.6C231.066 128.6 233.786 127.8 236.026 126.2C238.33 124.536 239.93 121.464 240.826 116.984L241.978 111.32C242.17 110.488 242.65 110.072 243.418 110.072C244.314 110.072 244.698 110.616 244.57 111.704L243.61 128.792C243.482 130.264 242.682 131 241.21 131H207.514ZM288.934 131.864C287.91 131.864 287.046 131.096 286.342 129.56L260.326 73.112C260.134 72.664 259.878 72.472 259.558 72.536C259.302 72.6 259.174 72.888 259.174 73.4V122.744C259.174 124.536 259.462 125.912 260.038 126.872C260.678 127.768 261.798 128.344 263.398 128.6L264.646 128.792C265.478 128.856 265.894 129.24 265.894 129.944C265.894 130.648 265.414 131 264.454 131H250.726C249.766 131 249.286 130.648 249.286 129.944C249.286 129.24 249.702 128.856 250.534 128.792L251.782 128.6C253.446 128.344 254.598 127.768 255.238 126.872C255.878 125.912 256.198 124.536 256.198 122.744V68.216C256.198 66.872 255.974 65.976 255.526 65.528C255.142 65.08 254.214 64.728 252.742 64.472L250.534 64.088C249.702 63.896 249.286 63.512 249.286 62.936C249.286 62.232 249.766 61.88 250.726 61.88H260.998C262.598 61.88 263.718 62.584 264.358 63.992L287.014 113.816C287.206 114.2 287.43 114.36 287.686 114.296C288.006 114.232 288.166 114.008 288.166 113.624V70.136C288.166 68.088 287.814 66.68 287.11 65.912C286.406 65.08 285.51 64.568 284.422 64.376L282.694 64.088C281.862 63.896 281.446 63.512 281.446 62.936C281.446 62.232 281.926 61.88 282.886 61.88H296.614C297.574 61.88 298.054 62.232 298.054 62.936C298.054 63.64 297.638 64.024 296.806 64.088L295.558 64.28C293.894 64.536 292.742 65.08 292.102 65.912C291.462 66.68 291.142 68.088 291.142 70.136V128.792C291.142 129.944 290.918 130.744 290.47 131.192C290.086 131.64 289.574 131.864 288.934 131.864Z" fill="#9C8E76"/>
<path d="M56.2459 181.916C55.4644 181.916 54.6198 181.805 53.7122 181.585C52.8045 181.389 51.9473 181.046 51.1406 180.556C50.3338 180.042 49.6657 179.356 49.1362 178.499C48.632 177.641 48.3799 176.563 48.3799 175.265C48.3799 173.747 48.9724 172.363 50.1573 171.113C51.3675 169.864 53.3466 169.019 56.0947 168.578C55.1366 166.496 54.6576 164.586 54.6576 162.846C54.6576 162.528 54.7206 162.026 54.8467 161.34C54.9728 160.654 55.2375 159.944 55.6409 159.209C56.0695 158.474 56.6998 157.849 57.5317 157.335C58.3637 156.821 59.4731 156.563 60.8597 156.563C61.2379 156.563 61.7421 156.612 62.3724 156.71C63.0279 156.784 63.6708 156.894 64.3011 157.041C64.9566 157.164 65.4861 157.323 65.8894 157.519L65.5113 159.834C64.6793 159.221 63.7086 158.78 62.5993 158.511C61.49 158.217 60.4689 158.07 59.5361 158.07C58.9058 158.462 58.4394 159.001 58.1368 159.687C57.8595 160.372 57.7208 161.181 57.7208 162.112C57.7208 163.385 57.9856 164.818 58.515 166.41C59.0697 168.003 59.8638 169.607 60.8975 171.224C61.9312 172.816 63.154 174.31 64.5658 175.706C65.2465 174.628 65.8012 173.514 66.2298 172.363C66.6584 171.211 67.0114 170.195 67.2887 169.313C67.0366 169.313 66.7845 169.313 66.5323 169.313C66.3054 169.313 66.0911 169.301 65.8894 169.276V168.137C66.9988 168.088 68.1459 167.99 69.3308 167.843C70.541 167.696 71.5369 167.525 72.3184 167.329L71.6755 169.166C71.3478 169.215 70.957 169.252 70.5032 169.276C70.0494 169.301 69.5704 169.325 69.0661 169.35C68.814 170.085 68.4106 171.15 67.856 172.546C67.3013 173.918 66.5449 175.29 65.5869 176.661C66.8727 177.739 68.2593 178.621 69.7468 179.307C71.2343 179.968 72.7975 180.299 74.4362 180.299L72.8101 181.438C71.2217 181.438 69.6964 181.168 68.2341 180.63C66.7719 180.091 65.3978 179.368 64.112 178.462C63.1792 179.442 62.0573 180.262 60.7462 180.924C59.4604 181.585 57.9603 181.916 56.2459 181.916ZM57.3427 180.189C58.578 180.189 59.6621 179.956 60.595 179.491C61.553 179.025 62.385 178.425 63.0909 177.69C61.7043 176.588 60.4563 175.351 59.347 173.979C58.2629 172.583 57.3553 171.175 56.6241 169.754C55.414 170.072 54.4433 170.538 53.7122 171.15C52.981 171.762 52.4516 172.424 52.1238 173.134C51.8213 173.845 51.67 174.555 51.67 175.265C51.67 176.465 51.9347 177.433 52.4642 178.168C52.9936 178.878 53.687 179.393 54.5442 179.711C55.4266 180.029 56.3594 180.189 57.3427 180.189Z" fill="#9C8E76"/>
<circle cx="60" cy="171" r="24" stroke="#9C8E76" stroke-width="2"/>
<path d="M136.2 241.864C130.632 241.864 127.08 238.216 125.544 230.92L123.336 220.264C122.632 216.808 121.832 214.184 120.936 212.392C120.104 210.6 118.92 209.384 117.384 208.744C115.912 208.104 113.864 207.784 111.24 207.784C110.344 207.784 109.64 208.04 109.128 208.552C108.616 209 108.36 209.576 108.36 210.28V234.28C108.36 235.624 108.616 236.552 109.128 237.064C109.64 237.512 110.792 237.896 112.584 238.216L116.136 238.792C116.84 238.92 117.192 239.272 117.192 239.848C117.192 240.616 116.712 241 115.752 241H96.264C95.304 241 94.824 240.648 94.824 239.944C94.824 239.368 95.24 238.984 96.072 238.792L98.28 238.408C99.624 238.152 100.488 237.8 100.872 237.352C101.32 236.904 101.544 236.008 101.544 234.664V178.216C101.544 176.872 101.32 175.976 100.872 175.528C100.488 175.08 99.624 174.728 98.28 174.472L96.072 174.088C95.24 173.896 94.824 173.512 94.824 172.936C94.824 172.232 95.304 171.88 96.264 171.88H115.752C119.528 171.88 122.888 172.616 125.832 174.088C128.776 175.56 131.08 177.608 132.744 180.232C134.408 182.792 135.24 185.768 135.24 189.16C135.24 193.192 134.024 196.84 131.592 200.104C129.16 203.304 126.088 205.576 122.376 206.92C121.928 207.048 121.672 207.272 121.608 207.592C121.608 207.848 121.832 208.072 122.28 208.264C124.328 209.224 125.928 210.568 127.08 212.296C128.296 214.024 129.224 216.328 129.864 219.208L131.976 229C132.68 232.328 133.512 234.696 134.472 236.104C135.432 237.512 136.648 238.216 138.12 238.216C138.632 238.216 139.08 238.152 139.464 238.024C139.912 237.832 140.456 237.512 141.096 237.064C141.608 236.744 142.088 236.68 142.536 236.872C142.984 237 143.208 237.32 143.208 237.832C143.208 238.92 142.504 239.88 141.096 240.712C139.688 241.48 138.056 241.864 136.2 241.864ZM114.792 205.384C119.144 205.384 122.44 203.944 124.68 201.064C126.92 198.12 128.04 194.216 128.04 189.352C128.04 184.616 126.728 180.936 124.104 178.312C121.544 175.624 117.992 174.28 113.448 174.28C110.056 174.28 108.36 175.56 108.36 178.12V200.104C108.36 203.624 110.504 205.384 114.792 205.384ZM137.149 241C136.189 241 135.709 240.68 135.709 240.04C135.709 239.4 136.157 238.984 137.053 238.792L138.494 238.504C139.774 238.248 140.734 237.64 141.374 236.68C142.014 235.656 142.558 234.248 143.006 232.456L157.886 172.456C158.014 171.816 158.206 171.4 158.462 171.208C158.782 171.016 159.07 170.92 159.326 170.92C159.646 170.92 159.934 171.016 160.19 171.208C160.51 171.4 160.734 171.816 160.862 172.456L176.03 233.32C176.478 235.112 176.99 236.36 177.566 237.064C178.142 237.768 179.038 238.248 180.254 238.504L181.694 238.792C182.59 238.984 183.038 239.4 183.038 240.04C183.038 240.68 182.558 241 181.598 241H165.182C164.286 241 163.838 240.648 163.838 239.944C163.838 239.24 164.382 238.856 165.47 238.792L167.294 238.6C168.382 238.472 169.054 238.12 169.31 237.544C169.63 236.968 169.63 235.976 169.31 234.568L165.661 219.688C165.278 218.024 164.222 217.192 162.494 217.192H152.414C150.75 217.192 149.694 218.024 149.246 219.688L145.982 232.552C145.022 236.2 145.982 238.216 148.862 238.6L150.302 238.792C151.39 238.984 151.934 239.368 151.934 239.944C151.934 240.648 151.486 241 150.59 241H137.149ZM152.126 214.312H162.686C163.71 214.312 164.126 213.768 163.934 212.68L157.79 186.952H157.31L150.878 212.68C150.686 213.768 151.102 214.312 152.126 214.312ZM204.244 241.864C200.788 241.864 197.716 241.064 195.028 239.464C192.404 237.8 190.356 235.528 188.884 232.648C187.412 229.704 186.676 226.344 186.676 222.568V178.216C186.676 176.872 186.452 175.976 186.004 175.528C185.62 175.08 184.756 174.728 183.412 174.472L181.204 174.088C180.372 173.896 179.956 173.512 179.956 172.936C179.956 172.232 180.436 171.88 181.396 171.88H198.964C199.924 171.88 200.404 172.264 200.404 173.032C200.404 173.608 200.052 173.96 199.348 174.088L196.756 174.472C195.476 174.664 194.612 175.016 194.164 175.528C193.716 176.04 193.492 176.968 193.492 178.312V222.664C193.492 227.528 194.58 231.304 196.756 233.992C198.932 236.68 201.972 238.024 205.876 238.024C209.844 238.024 212.916 236.68 215.092 233.992C217.268 231.304 218.356 227.528 218.356 222.664V180.232C218.356 176.776 217.268 174.856 215.092 174.472L212.5 174.088C211.796 173.96 211.444 173.608 211.444 173.032C211.444 172.264 211.924 171.88 212.884 171.88H226.708C227.668 171.88 228.148 172.232 228.148 172.936C228.148 173.512 227.732 173.896 226.9 174.088L224.692 174.472C222.516 174.856 221.428 176.744 221.428 180.136V222.568C221.428 228.392 219.86 233.064 216.724 236.584C213.588 240.104 209.428 241.864 204.244 241.864ZM196.66 164.584C195.572 165.032 194.836 164.904 194.452 164.2C194.004 163.496 194.292 162.792 195.316 162.088L209.14 151.336C209.78 150.824 210.388 150.44 210.964 150.184C211.54 149.928 212.244 149.8 213.076 149.8C214.228 149.8 215.124 150.152 215.764 150.856C216.404 151.496 216.724 152.2 216.724 152.968C216.724 153.8 216.5 154.536 216.052 155.176C215.668 155.752 214.9 156.296 213.748 156.808L196.66 164.584ZM232.577 241C231.617 241 231.137 240.648 231.137 239.944C231.137 239.368 231.553 238.984 232.385 238.792L234.593 238.408C235.937 238.152 236.801 237.8 237.185 237.352C237.633 236.904 237.857 236.008 237.857 234.664V178.216C237.857 176.872 237.633 175.976 237.185 175.528C236.801 175.08 235.937 174.728 234.593 174.472L232.385 174.088C231.553 173.896 231.137 173.512 231.137 172.936C231.137 172.232 231.617 171.88 232.577 171.88H250.145C251.105 171.88 251.585 172.264 251.585 173.032C251.585 173.608 251.233 173.96 250.529 174.088L247.937 174.472C246.593 174.664 245.697 175.016 245.249 175.528C244.865 176.04 244.673 176.968 244.673 178.312V232.072C244.673 234.376 245.313 236.04 246.593 237.064C247.937 238.088 249.601 238.6 251.585 238.6C253.057 238.6 254.561 238.312 256.097 237.736C257.697 237.096 259.137 235.944 260.417 234.28C261.697 232.552 262.657 230.056 263.297 226.792L264.545 220.36C264.737 219.528 265.217 219.112 265.985 219.112C266.881 219.112 267.265 219.656 267.137 220.744L265.985 238.792C265.857 240.264 265.057 241 263.585 241H232.577Z" fill="#9C8E76"/>
<path d="M134.22 301L140.22 293.296L134.508 285.112H137.508L141.492 291.712L146.484 285.112H147.948L142.02 292.456L148.284 301H145.284L140.772 293.992L135.684 301H134.22ZM156.384 301.384L149.256 285.112H151.872L157.152 298.12L161.904 285.112H163.104L156.768 301.384H156.384ZM165.496 301V285.112H167.704V301H165.496Z" fill="#9C8E76"/>
</svg>
