<?xml version="1.0" encoding="UTF-8" standalone="no"?>
<!DOCTYPE svg PUBLIC "-//W3C//DTD SVG 1.1//EN" "http://www.w3.org/Graphics/SVG/1.1/DTD/svg11.dtd">
<svg width="100%" height="100%" viewBox="0 0 408 408" version="1.1" xmlns="http://www.w3.org/2000/svg" xmlns:xlink="http://www.w3.org/1999/xlink" xml:space="preserve" xmlns:serif="http://www.serif.com/" style="fill-rule:evenodd;clip-rule:evenodd;stroke-linejoin:round;stroke-miterlimit:2;">
    <g transform="matrix(1,0,0,1,-994.822222,-2723.791111)">
        <g>
            <g transform="matrix(5.555556,0,0,5.555556,0,0)">
                <g>
                    <g>
                        <clipPath id="_clip1">
                            <path d="M215.711,490.282C195.473,490.282 179.068,506.688 179.068,526.926C179.068,547.163 195.473,563.569 215.711,563.569C235.949,563.569 252.355,547.163 252.355,526.926C252.355,506.688 235.949,490.282 215.711,490.282Z" clip-rule="nonzero"/>
                        </clipPath>
                        <g clip-path="url(#_clip1)">
                            <g transform="matrix(0.1,0,0,0.1,0,458.3515)">
                                <clipPath id="_clip2">
                                    <path d="M2157.11,319.305C1954.73,319.305 1790.68,483.368 1790.68,685.743C1790.68,888.118 1954.73,1052.176 2157.11,1052.176C2359.49,1052.176 2523.55,888.118 2523.55,685.743C2523.55,483.368 2359.49,319.305 2157.11,319.305Z" clip-rule="nonzero"/>
                                </clipPath>
                                <g clip-path="url(#_clip2)">
                                    <rect x="1790.68" y="319.309" width="732.867" height="732.867" style="fill:white;"/>
                                </g>
                            </g>
                        </g>
                    </g>
                    <g>
                        <clipPath id="_clip3">
                            <path d="M215.711,494.536C197.823,494.536 183.321,509.038 183.321,526.926C183.321,544.814 197.823,559.315 215.711,559.315C233.6,559.315 248.101,544.814 248.101,526.926C248.101,509.038 233.6,494.536 215.711,494.536Z" clip-rule="nonzero"/>
                        </clipPath>
                        <g clip-path="url(#_clip3)">
                            <g transform="matrix(0.1,0,0,0.1,0,458.3511)">
                                <clipPath id="_clip4">
                                    <path d="M2157.11,361.849C1978.23,361.849 1833.21,506.864 1833.21,685.747C1833.21,864.63 1978.23,1009.641 2157.11,1009.641C2336,1009.641 2481.01,864.63 2481.01,685.747C2481.01,506.864 2336,361.849 2157.11,361.849Z" clip-rule="nonzero"/>
                                </clipPath>
                                <g clip-path="url(#_clip4)">
                                    <rect x="1833.21" y="361.848" width="647.793" height="647.793" style="fill:rgb(237,225,196);"/>
                                </g>
                            </g>
                        </g>
                    </g>
                    <g transform="matrix(0.1,0,0,0.1,0,458.3578)">
                        <path d="M1961.77,456.184C1959.5,453.402 1959.92,449.32 1962.71,447.059L1962.71,447.043C1965.47,444.793 1969.57,445.211 1971.83,447.981C1974.09,450.762 1973.68,454.844 1970.89,457.106C1969.68,458.086 1968.24,458.578 1966.8,458.578C1964.91,458.578 1963.05,457.754 1961.77,456.184ZM1971.33,914.777C1968.54,912.512 1964.45,912.945 1962.2,915.727C1959.94,918.512 1960.37,922.59 1963.15,924.852C1964.35,925.82 1965.79,926.293 1967.23,926.293C1969.12,926.293 1971,925.473 1972.28,923.902C1974.53,921.121 1974.11,917.039 1971.33,914.777ZM1995.75,437.715C1996.93,437.715 1998.14,437.383 1999.21,436.707C2002.23,434.777 2003.13,430.77 2001.21,427.754C1999.29,424.727 1995.29,423.832 1992.26,425.75C1989.23,427.668 1988.34,431.676 1990.25,434.703C1991.5,436.649 1993.6,437.715 1995.75,437.715ZM1922.73,864.797C1920.55,861.942 1916.47,861.406 1913.63,863.586C1910.78,865.762 1910.25,869.828 1912.42,872.68C1913.7,874.34 1915.62,875.219 1917.58,875.219C1918.95,875.219 1920.34,874.785 1921.52,873.879C1924.36,871.699 1924.91,867.637 1922.73,864.781L1922.73,864.797ZM1999.7,935.145C1996.67,933.231 1992.66,934.121 1990.75,937.164C1988.83,940.192 1989.73,944.199 1992.76,946.117L1992.76,946.102C1993.84,946.781 1995.04,947.113 1996.22,947.113C1998.37,947.113 2000.48,946.047 2001.71,944.086C2003.63,941.059 2002.73,937.051 1999.7,935.145ZM1936.38,891.074C1933.8,893.586 1933.74,897.692 1936.25,900.258C1937.52,901.559 1939.21,902.219 1940.89,902.219C1942.52,902.219 1944.15,901.613 1945.42,900.391C1947.99,897.879 1948.04,893.785 1945.55,891.207C1943.05,888.641 1938.95,888.582 1936.38,891.074ZM2129.67,392.234C2129.86,392.234 2130.06,392.219 2130.25,392.203C2133.82,391.887 2136.45,388.746 2136.13,385.168C2135.82,381.594 2132.66,378.969 2129.1,379.289C2125.52,379.606 2122.9,382.762 2123.21,386.324C2123.52,389.695 2126.34,392.234 2129.67,392.234ZM2026.95,420.43C2027.88,420.43 2028.83,420.215 2029.74,419.781C2032.97,418.238 2034.32,414.363 2032.78,411.133C2031.24,407.902 2027.36,406.535 2024.13,408.09L2024.13,408.078C2020.9,409.633 2019.54,413.512 2021.08,416.742C2022.2,419.063 2024.52,420.43 2026.95,420.43ZM2096.34,974.285C2092.84,973.567 2089.41,975.813 2088.68,979.317C2087.94,982.82 2090.19,986.266 2093.69,986.988C2094.14,987.086 2094.59,987.133 2095.03,987.133C2098.03,987.133 2100.74,985.027 2101.38,981.969C2102.11,978.469 2099.86,975.02 2096.34,974.285ZM2094.38,397.524C2094.83,397.524 2095.28,397.465 2095.72,397.379C2099.23,396.645 2101.48,393.199 2100.74,389.695C2099.99,386.18 2096.56,383.945 2093.04,384.68L2093.06,384.68C2089.54,385.414 2087.3,388.859 2088.04,392.363C2088.69,395.418 2091.38,397.524 2094.38,397.524ZM2059.97,406.953C2060.66,406.953 2061.37,406.836 2062.06,406.606C2065.45,405.453 2067.27,401.777 2066.11,398.375C2064.96,394.988 2061.29,393.172 2057.89,394.324C2054.49,395.477 2052.68,399.152 2053.83,402.555C2054.75,405.25 2057.28,406.953 2059.97,406.953ZM2030.27,952.012C2027.05,950.473 2023.17,951.84 2021.63,955.07C2020.08,958.313 2021.45,962.176 2024.7,963.719C2025.59,964.152 2026.54,964.356 2027.48,964.356C2029.9,964.356 2032.23,962.984 2033.34,960.649C2034.89,957.418 2033.5,953.555 2030.27,952.012ZM1940.5,482.695C1942.21,482.695 1943.89,482.031 1945.16,480.719C1947.66,478.141 1947.58,474.047 1945.02,471.551C1942.45,469.059 1938.34,469.113 1935.85,471.695C1933.36,474.262 1933.41,478.371 1935.99,480.863C1937.25,482.09 1938.88,482.695 1940.5,482.695ZM1878.4,570.563C1879.25,570.938 1880.13,571.125 1881.01,571.125C1883.5,571.125 1885.88,569.668 1886.95,567.246C1888.39,563.957 1886.91,560.137 1883.62,558.695C1880.35,557.254 1876.51,558.738 1875.07,562.012C1873.63,565.301 1875.11,569.121 1878.4,570.563ZM1866.74,604.324C1867.36,604.512 1867.99,604.598 1868.61,604.598C1871.39,604.598 1873.97,602.797 1874.82,600C1875.86,596.567 1873.93,592.934 1870.5,591.899C1867.07,590.859 1863.45,592.793 1862.41,596.223C1861.36,599.652 1863.3,603.274 1866.74,604.324ZM1855.8,674.719C1855.91,674.734 1856.04,674.734 1856.17,674.734C1859.59,674.734 1862.44,672.067 1862.64,668.621C1862.84,665.047 1860.11,661.973 1856.53,661.774C1852.96,661.57 1849.88,664.297 1849.68,667.871C1849.48,671.445 1852.22,674.516 1855.8,674.719ZM1859.17,639.195C1859.56,639.27 1859.93,639.297 1860.31,639.297C1863.39,639.297 1866.13,637.094 1866.7,633.949L1866.7,633.934C1867.31,630.418 1864.96,627.043 1861.43,626.426C1857.9,625.789 1854.54,628.152 1853.92,631.672C1853.29,635.203 1855.64,638.578 1859.17,639.195ZM1913.29,508.414C1914.47,509.309 1915.85,509.738 1917.22,509.738C1919.18,509.738 1921.11,508.859 1922.38,507.188C1924.56,504.348 1924.01,500.27 1921.16,498.09C1918.32,495.93 1914.24,496.477 1912.06,499.317C1909.9,502.172 1910.45,506.238 1913.29,508.414ZM2449.53,650.281C2449.93,653.586 2452.73,656.008 2455.95,656.008C2456.21,656.008 2456.47,655.992 2456.75,655.961C2460.29,655.531 2462.85,652.301 2462.41,648.742C2461.98,645.195 2458.75,642.656 2455.21,643.074C2451.64,643.508 2449.11,646.738 2449.53,650.281ZM2443.33,615.945C2444.05,618.914 2446.7,620.902 2449.63,620.902C2450.13,620.902 2450.65,620.844 2451.16,620.715C2454.64,619.863 2456.78,616.363 2455.93,612.871C2455.09,609.399 2451.57,607.25 2448.1,608.102C2444.61,608.953 2442.48,612.453 2443.33,615.945ZM1894,538.457C1895.04,539.063 1896.18,539.352 1897.29,539.352C1899.5,539.352 1901.67,538.211 1902.88,536.164C1904.71,533.078 1903.69,529.102 1900.6,527.285C1897.52,525.453 1893.54,526.477 1891.71,529.574L1891.71,529.563C1889.89,532.649 1890.91,536.625 1894,538.457ZM1894.29,833.598C1891.2,835.414 1890.19,839.41 1892.02,842.481C1893.23,844.527 1895.4,845.664 1897.6,845.664C1898.73,845.664 1899.87,845.375 1900.9,844.758C1903.99,842.926 1905,838.945 1903.18,835.863C1901.35,832.793 1897.37,831.77 1894.29,833.598ZM1856.59,710.399C1860.16,710.195 1862.89,707.125 1862.67,703.551L1862.67,703.535C1862.47,699.961 1859.39,697.234 1855.81,697.453C1852.23,697.668 1849.51,700.738 1849.73,704.317C1849.93,707.762 1852.78,710.414 1856.2,710.414C1856.33,710.414 1856.46,710.414 1856.59,710.399ZM1878.64,801.551C1875.36,802.992 1873.88,806.828 1875.33,810.102C1876.39,812.524 1878.77,813.965 1881.27,813.965C1882.15,813.965 1883.03,813.789 1883.89,813.418C1887.16,811.961 1888.65,808.125 1887.2,804.852C1885.74,801.582 1881.92,800.094 1878.64,801.551ZM1875,772.145C1873.96,768.711 1870.33,766.781 1866.91,767.832C1863.48,768.883 1861.55,772.504 1862.6,775.934C1863.45,778.731 1866.02,780.531 1868.8,780.531C1869.43,780.531 1870.07,780.434 1870.7,780.246C1874.13,779.192 1876.05,775.559 1875,772.145ZM1866.79,738.207C1866.16,734.692 1862.79,732.34 1859.27,732.973C1855.74,733.609 1853.39,736.981 1854.04,740.5C1854.6,743.641 1857.32,745.848 1860.41,745.848C1860.79,745.848 1861.17,745.805 1861.56,745.746C1865.08,745.113 1867.43,741.738 1866.79,738.207ZM2062.64,965.117C2059.25,963.981 2055.57,965.809 2054.42,969.199C2053.28,972.598 2055.1,976.277 2058.5,977.414C2059.19,977.645 2059.89,977.762 2060.58,977.762C2063.29,977.762 2065.81,976.047 2066.72,973.348C2067.86,969.945 2066.04,966.27 2062.64,965.117ZM2359.84,469.649C2361.6,469.649 2363.36,468.926 2364.63,467.527C2367.05,464.875 2366.86,460.781 2364.21,458.359C2361.56,455.953 2357.46,456.141 2355.04,458.777C2352.63,461.43 2352.82,465.539 2355.47,467.945C2356.71,469.086 2358.27,469.649 2359.84,469.649ZM2406.46,523.508C2407.72,523.508 2408.99,523.149 2410.1,522.383C2413.07,520.379 2413.84,516.344 2411.83,513.371C2409.82,510.402 2405.79,509.637 2402.82,511.641C2399.85,513.66 2399.08,517.684 2401.09,520.652C2402.34,522.512 2404.39,523.508 2406.46,523.508ZM2410.41,848.664C2407.45,846.66 2403.41,847.438 2401.4,850.406L2401.4,850.422C2399.4,853.379 2400.18,857.414 2403.15,859.418C2404.27,860.168 2405.53,860.527 2406.78,860.527C2408.86,860.527 2410.91,859.535 2412.16,857.672C2414.16,854.703 2413.38,850.668 2410.41,848.664ZM2355.88,903.215C2353.23,905.637 2353.05,909.746 2355.47,912.383C2356.74,913.781 2358.5,914.488 2360.26,914.488C2361.82,914.488 2363.39,913.926 2364.64,912.785C2367.28,910.363 2367.45,906.27 2365.05,903.617C2362.63,900.981 2358.52,900.793 2355.88,903.215ZM2384.74,495.195C2386.25,495.195 2387.77,494.676 2388.99,493.621C2391.7,491.274 2391.99,487.18 2389.64,484.469C2387.3,481.758 2383.21,481.453 2380.5,483.805C2377.79,486.156 2377.49,490.25 2379.84,492.961C2381.12,494.445 2382.92,495.195 2384.74,495.195ZM2424.69,554.172C2425.7,554.172 2426.7,553.942 2427.66,553.449C2430.84,551.793 2432.1,547.883 2430.45,544.699C2428.8,541.512 2424.89,540.274 2421.7,541.918C2418.52,543.559 2417.28,547.465 2418.92,550.652C2420.07,552.887 2422.34,554.172 2424.69,554.172ZM2380.2,878.16C2377.86,880.871 2378.16,884.965 2380.88,887.313C2382.1,888.367 2383.6,888.887 2385.11,888.887C2386.93,888.887 2388.73,888.121 2390.02,886.637L2390.03,886.637C2392.37,883.926 2392.06,879.832 2389.35,877.481C2386.63,875.145 2382.54,875.449 2380.2,878.16ZM2456.8,714.938C2453.25,714.52 2450.02,717.074 2449.6,720.633C2449.18,724.18 2451.73,727.41 2455.29,727.828C2455.54,727.856 2455.8,727.871 2456.05,727.871C2459.3,727.871 2462.1,725.449 2462.48,722.149C2462.9,718.586 2460.37,715.356 2456.8,714.938ZM2427.93,817.555C2424.74,815.91 2420.82,817.164 2419.2,820.352L2419.2,820.363C2417.55,823.551 2418.8,827.457 2421.99,829.102C2422.94,829.578 2423.95,829.809 2424.96,829.809C2427.31,829.809 2429.57,828.524 2430.73,826.289C2432.37,823.106 2431.12,819.195 2427.93,817.555ZM2451.3,750.203C2447.81,749.363 2444.31,751.512 2443.47,754.988C2442.63,758.477 2444.77,761.981 2448.26,762.817C2448.76,762.945 2449.28,763.004 2449.79,763.004C2452.71,763.004 2455.36,761 2456.09,758.027C2456.92,754.539 2454.77,751.039 2451.3,750.203ZM2464.62,685.113C2464.61,681.535 2461.69,678.641 2458.12,678.641C2454.53,678.652 2451.63,681.567 2451.64,685.141L2451.64,685.774C2451.64,689.352 2454.54,692.25 2458.13,692.25C2461.71,692.25 2464.62,689.352 2464.62,685.774C2464.62,685.66 2464.62,685.559 2464.61,685.457C2464.62,685.344 2464.62,685.227 2464.62,685.113ZM2441.63,784.582C2438.27,783.328 2434.53,785.047 2433.28,788.402C2432.04,791.762 2433.74,795.496 2437.1,796.738C2437.85,797.024 2438.61,797.156 2439.36,797.156C2442,797.156 2444.48,795.539 2445.45,792.918C2446.68,789.559 2444.98,785.824 2441.63,784.582ZM2439.14,586.793C2439.91,586.793 2440.68,586.649 2441.42,586.375C2444.78,585.121 2446.48,581.387 2445.23,578.027C2443.98,574.672 2440.24,572.969 2436.88,574.223C2433.52,575.477 2431.82,579.211 2433.08,582.57C2434.04,585.18 2436.52,586.793 2439.14,586.793ZM2267.23,412.371C2268.03,412.692 2268.85,412.836 2269.66,412.836C2272.22,412.836 2274.66,411.305 2275.68,408.781C2277.02,405.453 2275.41,401.676 2272.09,400.336C2268.78,398.996 2264.98,400.594 2263.64,403.926C2262.3,407.242 2263.9,411.016 2267.23,412.371ZM2200.57,977.301C2197.03,977.817 2194.59,981.121 2195.11,984.664C2195.59,987.895 2198.35,990.203 2201.52,990.203C2201.84,990.203 2202.16,990.188 2202.48,990.129C2206.02,989.609 2208.47,986.309 2207.94,982.762C2207.42,979.215 2204.12,976.781 2200.57,977.301ZM2234.12,401.242C2234.7,401.402 2235.26,401.473 2235.82,401.473C2238.68,401.473 2241.3,399.57 2242.08,396.672C2243.02,393.215 2240.98,389.652 2237.52,388.715C2234.06,387.777 2230.5,389.824 2229.56,393.285C2228.63,396.746 2230.67,400.305 2234.12,401.242ZM2199.95,394.137C2200.27,394.195 2200.59,394.207 2200.89,394.207C2204.06,394.207 2206.83,391.887 2207.3,388.656C2207.82,385.113 2205.38,381.824 2201.83,381.305C2198.28,380.785 2194.98,383.238 2194.46,386.785C2193.94,390.332 2196.41,393.633 2199.95,394.137ZM2234.74,970.133C2231.28,971.07 2229.25,974.633 2230.18,978.094C2230.98,980.977 2233.59,982.879 2236.44,982.879C2237.02,982.879 2237.58,982.805 2238.16,982.649C2241.62,981.695 2243.65,978.137 2242.71,974.676C2241.76,971.215 2238.2,969.184 2234.74,970.133ZM2165.8,980.383C2162.21,980.484 2159.4,983.484 2159.5,987.059C2159.6,990.578 2162.48,993.359 2165.99,993.359C2166.05,993.359 2166.12,993.359 2166.18,993.344C2169.77,993.242 2172.58,990.258 2172.48,986.668C2172.36,983.094 2169.38,980.285 2165.8,980.383ZM2165.17,391.137L2165.34,391.137C2168.84,391.137 2171.73,388.356 2171.83,384.824C2171.93,381.25 2169.1,378.266 2165.51,378.164C2161.94,378.063 2158.95,380.887 2158.85,384.477C2158.75,388.051 2161.58,391.035 2165.17,391.137ZM2267.81,958.934C2264.48,960.289 2262.88,964.067 2264.23,967.395C2265.26,969.902 2267.7,971.434 2270.25,971.434C2271.07,971.434 2271.89,971.289 2272.68,970.957C2276.01,969.602 2277.6,965.824 2276.26,962.508C2274.9,959.192 2271.13,957.594 2267.81,958.934ZM2299.28,943.899C2296.15,945.641 2295.01,949.578 2296.74,952.719C2297.93,954.852 2300.14,956.063 2302.42,956.063C2303.49,956.063 2304.57,955.805 2305.57,955.258C2308.7,953.527 2309.83,949.578 2308.1,946.434C2306.37,943.305 2302.42,942.168 2299.28,943.899ZM2130.88,979.391C2127.32,979.074 2124.17,981.711 2123.86,985.285C2123.55,988.848 2126.18,991.988 2129.76,992.305C2129.95,992.32 2130.14,992.336 2130.32,992.336C2133.65,992.336 2136.49,989.785 2136.78,986.41C2137.1,982.836 2134.46,979.692 2130.88,979.391ZM2328.33,445.977C2329.47,446.797 2330.79,447.188 2332.09,447.188C2334.13,447.188 2336.11,446.25 2337.38,444.477C2339.46,441.567 2338.79,437.516 2335.88,435.426C2332.97,433.332 2328.92,434.012 2326.83,436.922C2324.74,439.836 2325.42,443.887 2328.33,445.977ZM2298.78,427.352C2299.77,427.899 2300.84,428.16 2301.9,428.16C2304.18,428.16 2306.4,426.949 2307.58,424.801C2309.31,421.656 2308.18,417.707 2305.03,415.992C2301.89,414.262 2297.95,415.399 2296.22,418.543C2294.49,421.684 2295.63,425.621 2298.78,427.352ZM2328.78,925.242C2325.86,927.332 2325.2,931.383 2327.3,934.297C2328.56,936.055 2330.55,936.992 2332.57,936.992C2333.88,936.992 2335.21,936.59 2336.36,935.766C2339.26,933.676 2339.92,929.625 2337.83,926.711C2335.74,923.801 2331.69,923.137 2328.78,925.242" style="fill:rgb(253,253,254);fill-rule:nonzero;"/>
                    </g>
                    <g>
                        <g>
                            <g transform="matrix(0.18,0,0,0.18,158.85368,419.589796)">
                                <g transform="matrix(197.185556,0,0,197.185556,329.387662,651.302246)">
                                </g>
                                <text x="193.724px" y="651.302px" style="font-family:'PlayfairDisplaySC-Regular', 'Playfair Display SC';font-size:197.186px;fill:rgb(191,176,140);">C</text>
                            </g>
                        </g>
                    </g>
                    <g>
                        <g>
                            <g transform="matrix(0.18,0,0,0.18,175.7424,419.589796)">
                                <g transform="matrix(197.185556,0,0,197.185556,342.09624,651.302246)">
                                </g>
                                <text x="214.32px" y="651.302px" style="font-family:'PlayfairDisplaySC-Regular', 'Playfair Display SC';font-size:197.186px;fill:rgb(124,114,92);">R</text>
                            </g>
                        </g>
                    </g>
                    <g>
                        <g>
                            <g transform="matrix(0.18,0,0,0.18,159.29894,428.950986)">
                                <g transform="matrix(55.555556,0,0,55.555556,442.084889,560.666514)">
                                </g>
                                <text x="194.267px" y="560.667px" style="font-family:'HerrVonMuellerhoff-Regular', 'Herr Von Muellerhoff';font-size:55.556px;fill:rgb(253,253,254);">Ca<tspan x="225.63px 238.506px 264.548px 275.369px 292.245px 303.12px 313.996px 340.928px 351.804px 362.679px 399px 414.042px 432.029px " y="560.667px 560.667px 560.667px 560.667px 560.667px 560.667px 560.667px 560.667px 560.667px 560.667px 560.667px 560.667px 560.667px ">rmen  &amp;  Raúl</tspan></text>
                            </g>
                        </g>
                    </g>
                    <g>
                        <g>
                            <g transform="matrix(0.167301,0.06641,-0.06641,0.167301,168.790949,450.37076)">
                                <g transform="matrix(19.069492,0,0,19.069492,401.014029,448.040631)">
                                </g>
                                <text x="393.958px" y="448.041px" style="font-family:'PlayfairDisplaySC-Regular', 'Playfair Display SC';font-size:19.069px;fill:rgb(116,116,115);">1</text>
                            </g>
                            <g transform="matrix(0.172199,0.052416,-0.052416,0.172199,170.351457,450.971549)">
                                <g transform="matrix(19.069496,0,0,19.069496,368.751291,479.136657)">
                                </g>
                                <text x="358.892px" y="479.137px" style="font-family:'PlayfairDisplaySC-Regular', 'Playfair Display SC';font-size:19.069px;fill:rgb(116,116,115);">6</text>
                            </g>
                            <g transform="matrix(0.175658,0.039298,-0.039298,0.175658,172.362827,451.54383)">
                                <g transform="matrix(19.069504,0,0,19.069504,330.15529,504.989693)">
                                </g>
                                <text x="325.35px" y="504.99px" style="font-family:'PlayfairDisplaySC-Regular', 'Playfair Display SC';font-size:19.07px;fill:rgb(116,116,115);">.</text>
                            </g>
                            <g transform="matrix(0.178244,0.025078,-0.025078,0.178244,173.673202,451.831304)">
                                <g transform="matrix(19.069503,0,0,19.069503,297.942039,529.632531)">
                                </g>
                                <text x="286.5px" y="529.633px" style="font-family:'PlayfairDisplaySC-Regular', 'Playfair Display SC';font-size:19.07px;fill:rgb(116,116,115);">0</text>
                            </g>
                            <g transform="matrix(0.179777,0.008957,-0.008957,0.179777,175.96784,452.113801)">
                                <g transform="matrix(19.069496,0,0,19.069496,249.678469,553.498255)">
                                </g>
                                <text x="241.765px" y="553.498px" style="font-family:'PlayfairDisplaySC-Regular', 'Playfair Display SC';font-size:19.069px;fill:rgb(116,116,115);">5</text>
                            </g>
                            <g transform="matrix(0.179966,-0.003518,0.003518,0.179966,177.776409,452.173869)">
                                <g transform="matrix(19.069501,0,0,19.069501,210.786259,569.06501)">
                                </g>
                                <text x="205.981px" y="569.065px" style="font-family:'PlayfairDisplaySC-Regular', 'Playfair Display SC';font-size:19.07px;fill:rgb(116,116,115);">.</text>
                            </g>
                            <g transform="matrix(0.179228,-0.016658,0.016658,0.179228,179.12334,452.135955)">
                                <g transform="matrix(19.069508,0,0,19.069508,175.612584,582.735897)">
                                </g>
                                <text x="166.478px" y="582.736px" style="font-family:'PlayfairDisplaySC-Regular', 'Playfair Display SC';font-size:19.07px;fill:rgb(116,116,115);">2</text>
                            </g>
                            <g transform="matrix(0.176879,-0.033371,0.033371,0.176879,181.081785,451.932597)">
                                <g transform="matrix(19.069506,0,0,19.069506,126.265576,596.025324)">
                                </g>
                                <text x="114.824px" y="596.025px" style="font-family:'PlayfairDisplaySC-Regular', 'Playfair Display SC';font-size:19.07px;fill:rgb(116,116,115);">0</text>
                            </g>
                            <g transform="matrix(0.172976,-0.049792,0.049792,0.172976,183.342778,451.468394)">
                                <g transform="matrix(19.069493,0,0,19.069493,71.699398,604.437913)">
                                </g>
                                <text x="62.565px" y="604.438px" style="font-family:'PlayfairDisplaySC-Regular', 'Playfair Display SC';font-size:19.069px;fill:rgb(116,116,115);">2</text>
                            </g>
                            <g transform="matrix(0.167875,-0.064947,0.064947,0.167875,185.23073,450.898395)">
                                <g transform="matrix(19.069496,0,0,19.069496,22.127944,607.841166)">
                                </g>
                                <text x="12.269px" y="607.841px" style="font-family:'PlayfairDisplaySC-Regular', 'Playfair Display SC';font-size:19.069px;fill:rgb(116,116,115);">6</text>
                            </g>
                        </g>
                    </g>
                </g>
            </g>
        </g>
    </g>
</svg>
