<?xml version="1.0" encoding="UTF-8" standalone="no"?>
<!DOCTYPE svg PUBLIC "-//W3C//DTD SVG 1.1//EN" "http://www.w3.org/Graphics/SVG/1.1/DTD/svg11.dtd">
<svg width="100%" height="100%" viewBox="0 0 408 408" version="1.1" xmlns="http://www.w3.org/2000/svg" xmlns:xlink="http://www.w3.org/1999/xlink" xml:space="preserve" xmlns:serif="http://www.serif.com/" style="fill-rule:evenodd;clip-rule:evenodd;stroke-linejoin:round;stroke-miterlimit:2;">
    <g transform="matrix(1,0,0,1,-0.00008,-0.000218)">
        <g transform="matrix(1,0,0,1,-994.822222,-2723.791111)">
            <g>
                <g transform="matrix(5.555556,0,0,5.555556,0,0)">
                    <g>
                        <g>
                            <g>
                                <clipPath id="_clip1">
                                    <path d="M215.711,490.282C195.473,490.282 179.068,506.688 179.068,526.926C179.068,547.163 195.473,563.569 215.711,563.569C235.949,563.569 252.355,547.163 252.355,526.926C252.355,506.688 235.949,490.282 215.711,490.282Z"/>
                                </clipPath>
                                <g clip-path="url(#_clip1)">
                                    <g transform="matrix(0.1,0,0,0.1,0,458.3515)">
                                        <g>
                                            <clipPath id="_clip2">
                                                <path d="M2157.11,319.305C1954.73,319.305 1790.68,483.368 1790.68,685.743C1790.68,888.118 1954.73,1052.176 2157.11,1052.176C2359.49,1052.176 2523.55,888.118 2523.55,685.743C2523.55,483.368 2359.49,319.305 2157.11,319.305Z"/>
                                            </clipPath>
                                            <g clip-path="url(#_clip2)">
                                                <rect x="1790.68" y="319.309" width="732.867" height="732.867" style="fill:white;"/>
                                            </g>
                                        </g>
                                    </g>
                                </g>
                            </g>
                        </g>
                        <g>
                            <g>
                                <clipPath id="_clip3">
                                    <path d="M215.711,494.536C197.823,494.536 183.321,509.038 183.321,526.926C183.321,544.814 197.823,559.315 215.711,559.315C233.6,559.315 248.101,544.814 248.101,526.926C248.101,509.038 233.6,494.536 215.711,494.536Z"/>
                                </clipPath>
                                <g clip-path="url(#_clip3)">
                                    <g transform="matrix(0.1,0,0,0.1,0,458.3511)">
                                        <g>
                                            <clipPath id="_clip4">
                                                <path d="M2157.11,361.849C1978.23,361.849 1833.21,506.864 1833.21,685.747C1833.21,864.63 1978.23,1009.641 2157.11,1009.641C2336,1009.641 2481.01,864.63 2481.01,685.747C2481.01,506.864 2336,361.849 2157.11,361.849Z"/>
                                            </clipPath>
                                            <g clip-path="url(#_clip4)">
                                                <rect x="1833.21" y="361.848" width="647.793" height="647.793" style="fill:rgb(237,225,196);"/>
                                            </g>
                                        </g>
                                    </g>
                                </g>
                            </g>
                        </g>
                        <g transform="matrix(0.1,0,0,0.1,0,458.3578)">
                            <path d="M1961.77,456.184C1959.5,453.402 1959.92,449.32 1962.71,447.059L1962.71,447.043C1965.47,444.793 1969.57,445.211 1971.83,447.981C1974.09,450.762 1973.68,454.844 1970.89,457.106C1969.68,458.086 1968.24,458.578 1966.8,458.578C1964.91,458.578 1963.05,457.754 1961.77,456.184ZM1971.33,914.777C1968.54,912.512 1964.45,912.945 1962.2,915.727C1959.94,918.512 1960.37,922.59 1963.15,924.852C1964.35,925.82 1965.79,926.293 1967.23,926.293C1969.12,926.293 1971,925.473 1972.28,923.902C1974.53,921.121 1974.11,917.039 1971.33,914.777ZM1995.75,437.715C1996.93,437.715 1998.14,437.383 1999.21,436.707C2002.23,434.777 2003.13,430.77 2001.21,427.754C1999.29,424.727 1995.29,423.832 1992.26,425.75C1989.23,427.668 1988.34,431.676 1990.25,434.703C1991.5,436.649 1993.6,437.715 1995.75,437.715ZM1922.73,864.797C1920.55,861.942 1916.47,861.406 1913.63,863.586C1910.78,865.762 1910.25,869.828 1912.42,872.68C1913.7,874.34 1915.62,875.219 1917.58,875.219C1918.95,875.219 1920.34,874.785 1921.52,873.879C1924.36,871.699 1924.91,867.637 1922.73,864.781L1922.73,864.797ZM1999.7,935.145C1996.67,933.231 1992.66,934.121 1990.75,937.164C1988.83,940.192 1989.73,944.199 1992.76,946.117L1992.76,946.102C1993.84,946.781 1995.04,947.113 1996.22,947.113C1998.37,947.113 2000.48,946.047 2001.71,944.086C2003.63,941.059 2002.73,937.051 1999.7,935.145ZM1936.38,891.074C1933.8,893.586 1933.74,897.692 1936.25,900.258C1937.52,901.559 1939.21,902.219 1940.89,902.219C1942.52,902.219 1944.15,901.613 1945.42,900.391C1947.99,897.879 1948.04,893.785 1945.55,891.207C1943.05,888.641 1938.95,888.582 1936.38,891.074ZM2129.67,392.234C2129.86,392.234 2130.06,392.219 2130.25,392.203C2133.82,391.887 2136.45,388.746 2136.13,385.168C2135.82,381.594 2132.66,378.969 2129.1,379.289C2125.52,379.606 2122.9,382.762 2123.21,386.324C2123.52,389.695 2126.34,392.234 2129.67,392.234ZM2026.95,420.43C2027.88,420.43 2028.83,420.215 2029.74,419.781C2032.97,418.238 2034.32,414.363 2032.78,411.133C2031.24,407.902 2027.36,406.535 2024.13,408.09L2024.13,408.078C2020.9,409.633 2019.54,413.512 2021.08,416.742C2022.2,419.063 2024.52,420.43 2026.95,420.43ZM2096.34,974.285C2092.84,973.567 2089.41,975.813 2088.68,979.317C2087.94,982.82 2090.19,986.266 2093.69,986.988C2094.14,987.086 2094.59,987.133 2095.03,987.133C2098.03,987.133 2100.74,985.027 2101.38,981.969C2102.11,978.469 2099.86,975.02 2096.34,974.285ZM2094.38,397.524C2094.83,397.524 2095.28,397.465 2095.72,397.379C2099.23,396.645 2101.48,393.199 2100.74,389.695C2099.99,386.18 2096.56,383.945 2093.04,384.68L2093.06,384.68C2089.54,385.414 2087.3,388.859 2088.04,392.363C2088.69,395.418 2091.38,397.524 2094.38,397.524ZM2059.97,406.953C2060.66,406.953 2061.37,406.836 2062.06,406.606C2065.45,405.453 2067.27,401.777 2066.11,398.375C2064.96,394.988 2061.29,393.172 2057.89,394.324C2054.49,395.477 2052.68,399.152 2053.83,402.555C2054.75,405.25 2057.28,406.953 2059.97,406.953ZM2030.27,952.012C2027.05,950.473 2023.17,951.84 2021.63,955.07C2020.08,958.313 2021.45,962.176 2024.7,963.719C2025.59,964.152 2026.54,964.356 2027.48,964.356C2029.9,964.356 2032.23,962.984 2033.34,960.649C2034.89,957.418 2033.5,953.555 2030.27,952.012ZM1940.5,482.695C1942.21,482.695 1943.89,482.031 1945.16,480.719C1947.66,478.141 1947.58,474.047 1945.02,471.551C1942.45,469.059 1938.34,469.113 1935.85,471.695C1933.36,474.262 1933.41,478.371 1935.99,480.863C1937.25,482.09 1938.88,482.695 1940.5,482.695ZM1878.4,570.563C1879.25,570.938 1880.13,571.125 1881.01,571.125C1883.5,571.125 1885.88,569.668 1886.95,567.246C1888.39,563.957 1886.91,560.137 1883.62,558.695C1880.35,557.254 1876.51,558.738 1875.07,562.012C1873.63,565.301 1875.11,569.121 1878.4,570.563ZM1866.74,604.324C1867.36,604.512 1867.99,604.598 1868.61,604.598C1871.39,604.598 1873.97,602.797 1874.82,600C1875.86,596.567 1873.93,592.934 1870.5,591.899C1867.07,590.859 1863.45,592.793 1862.41,596.223C1861.36,599.652 1863.3,603.274 1866.74,604.324ZM1855.8,674.719C1855.91,674.734 1856.04,674.734 1856.17,674.734C1859.59,674.734 1862.44,672.067 1862.64,668.621C1862.84,665.047 1860.11,661.973 1856.53,661.774C1852.96,661.57 1849.88,664.297 1849.68,667.871C1849.48,671.445 1852.22,674.516 1855.8,674.719ZM1859.17,639.195C1859.56,639.27 1859.93,639.297 1860.31,639.297C1863.39,639.297 1866.13,637.094 1866.7,633.949L1866.7,633.934C1867.31,630.418 1864.96,627.043 1861.43,626.426C1857.9,625.789 1854.54,628.152 1853.92,631.672C1853.29,635.203 1855.64,638.578 1859.17,639.195ZM1913.29,508.414C1914.47,509.309 1915.85,509.738 1917.22,509.738C1919.18,509.738 1921.11,508.859 1922.38,507.188C1924.56,504.348 1924.01,500.27 1921.16,498.09C1918.32,495.93 1914.24,496.477 1912.06,499.317C1909.9,502.172 1910.45,506.238 1913.29,508.414ZM2449.53,650.281C2449.93,653.586 2452.73,656.008 2455.95,656.008C2456.21,656.008 2456.47,655.992 2456.75,655.961C2460.29,655.531 2462.85,652.301 2462.41,648.742C2461.98,645.195 2458.75,642.656 2455.21,643.074C2451.64,643.508 2449.11,646.738 2449.53,650.281ZM2443.33,615.945C2444.05,618.914 2446.7,620.902 2449.63,620.902C2450.13,620.902 2450.65,620.844 2451.16,620.715C2454.64,619.863 2456.78,616.363 2455.93,612.871C2455.09,609.399 2451.57,607.25 2448.1,608.102C2444.61,608.953 2442.48,612.453 2443.33,615.945ZM1894,538.457C1895.04,539.063 1896.18,539.352 1897.29,539.352C1899.5,539.352 1901.67,538.211 1902.88,536.164C1904.71,533.078 1903.69,529.102 1900.6,527.285C1897.52,525.453 1893.54,526.477 1891.71,529.574L1891.71,529.563C1889.89,532.649 1890.91,536.625 1894,538.457ZM1894.29,833.598C1891.2,835.414 1890.19,839.41 1892.02,842.481C1893.23,844.527 1895.4,845.664 1897.6,845.664C1898.73,845.664 1899.87,845.375 1900.9,844.758C1903.99,842.926 1905,838.945 1903.18,835.863C1901.35,832.793 1897.37,831.77 1894.29,833.598ZM1856.59,710.399C1860.16,710.195 1862.89,707.125 1862.67,703.551L1862.67,703.535C1862.47,699.961 1859.39,697.234 1855.81,697.453C1852.23,697.668 1849.51,700.738 1849.73,704.317C1849.93,707.762 1852.78,710.414 1856.2,710.414C1856.33,710.414 1856.46,710.414 1856.59,710.399ZM1878.64,801.551C1875.36,802.992 1873.88,806.828 1875.33,810.102C1876.39,812.524 1878.77,813.965 1881.27,813.965C1882.15,813.965 1883.03,813.789 1883.89,813.418C1887.16,811.961 1888.65,808.125 1887.2,804.852C1885.74,801.582 1881.92,800.094 1878.64,801.551ZM1875,772.145C1873.96,768.711 1870.33,766.781 1866.91,767.832C1863.48,768.883 1861.55,772.504 1862.6,775.934C1863.45,778.731 1866.02,780.531 1868.8,780.531C1869.43,780.531 1870.07,780.434 1870.7,780.246C1874.13,779.192 1876.05,775.559 1875,772.145ZM1866.79,738.207C1866.16,734.692 1862.79,732.34 1859.27,732.973C1855.74,733.609 1853.39,736.981 1854.04,740.5C1854.6,743.641 1857.32,745.848 1860.41,745.848C1860.79,745.848 1861.17,745.805 1861.56,745.746C1865.08,745.113 1867.43,741.738 1866.79,738.207ZM2062.64,965.117C2059.25,963.981 2055.57,965.809 2054.42,969.199C2053.28,972.598 2055.1,976.277 2058.5,977.414C2059.19,977.645 2059.89,977.762 2060.58,977.762C2063.29,977.762 2065.81,976.047 2066.72,973.348C2067.86,969.945 2066.04,966.27 2062.64,965.117ZM2359.84,469.649C2361.6,469.649 2363.36,468.926 2364.63,467.527C2367.05,464.875 2366.86,460.781 2364.21,458.359C2361.56,455.953 2357.46,456.141 2355.04,458.777C2352.63,461.43 2352.82,465.539 2355.47,467.945C2356.71,469.086 2358.27,469.649 2359.84,469.649ZM2406.46,523.508C2407.72,523.508 2408.99,523.149 2410.1,522.383C2413.07,520.379 2413.84,516.344 2411.83,513.371C2409.82,510.402 2405.79,509.637 2402.82,511.641C2399.85,513.66 2399.08,517.684 2401.09,520.652C2402.34,522.512 2404.39,523.508 2406.46,523.508ZM2410.41,848.664C2407.45,846.66 2403.41,847.438 2401.4,850.406L2401.4,850.422C2399.4,853.379 2400.18,857.414 2403.15,859.418C2404.27,860.168 2405.53,860.527 2406.78,860.527C2408.86,860.527 2410.91,859.535 2412.16,857.672C2414.16,854.703 2413.38,850.668 2410.41,848.664ZM2355.88,903.215C2353.23,905.637 2353.05,909.746 2355.47,912.383C2356.74,913.781 2358.5,914.488 2360.26,914.488C2361.82,914.488 2363.39,913.926 2364.64,912.785C2367.28,910.363 2367.45,906.27 2365.05,903.617C2362.63,900.981 2358.52,900.793 2355.88,903.215ZM2384.74,495.195C2386.25,495.195 2387.77,494.676 2388.99,493.621C2391.7,491.274 2391.99,487.18 2389.64,484.469C2387.3,481.758 2383.21,481.453 2380.5,483.805C2377.79,486.156 2377.49,490.25 2379.84,492.961C2381.12,494.445 2382.92,495.195 2384.74,495.195ZM2424.69,554.172C2425.7,554.172 2426.7,553.942 2427.66,553.449C2430.84,551.793 2432.1,547.883 2430.45,544.699C2428.8,541.512 2424.89,540.274 2421.7,541.918C2418.52,543.559 2417.28,547.465 2418.92,550.652C2420.07,552.887 2422.34,554.172 2424.69,554.172ZM2380.2,878.16C2377.86,880.871 2378.16,884.965 2380.88,887.313C2382.1,888.367 2383.6,888.887 2385.11,888.887C2386.93,888.887 2388.73,888.121 2390.02,886.637L2390.03,886.637C2392.37,883.926 2392.06,879.832 2389.35,877.481C2386.63,875.145 2382.54,875.449 2380.2,878.16ZM2456.8,714.938C2453.25,714.52 2450.02,717.074 2449.6,720.633C2449.18,724.18 2451.73,727.41 2455.29,727.828C2455.54,727.856 2455.8,727.871 2456.05,727.871C2459.3,727.871 2462.1,725.449 2462.48,722.149C2462.9,718.586 2460.37,715.356 2456.8,714.938ZM2427.93,817.555C2424.74,815.91 2420.82,817.164 2419.2,820.352L2419.2,820.363C2417.55,823.551 2418.8,827.457 2421.99,829.102C2422.94,829.578 2423.95,829.809 2424.96,829.809C2427.31,829.809 2429.57,828.524 2430.73,826.289C2432.37,823.106 2431.12,819.195 2427.93,817.555ZM2451.3,750.203C2447.81,749.363 2444.31,751.512 2443.47,754.988C2442.63,758.477 2444.77,761.981 2448.26,762.817C2448.76,762.945 2449.28,763.004 2449.79,763.004C2452.71,763.004 2455.36,761 2456.09,758.027C2456.92,754.539 2454.77,751.039 2451.3,750.203ZM2464.62,685.113C2464.61,681.535 2461.69,678.641 2458.12,678.641C2454.53,678.652 2451.63,681.567 2451.64,685.141L2451.64,685.774C2451.64,689.352 2454.54,692.25 2458.13,692.25C2461.71,692.25 2464.62,689.352 2464.62,685.774C2464.62,685.66 2464.62,685.559 2464.61,685.457C2464.62,685.344 2464.62,685.227 2464.62,685.113ZM2441.63,784.582C2438.27,783.328 2434.53,785.047 2433.28,788.402C2432.04,791.762 2433.74,795.496 2437.1,796.738C2437.85,797.024 2438.61,797.156 2439.36,797.156C2442,797.156 2444.48,795.539 2445.45,792.918C2446.68,789.559 2444.98,785.824 2441.63,784.582ZM2439.14,586.793C2439.91,586.793 2440.68,586.649 2441.42,586.375C2444.78,585.121 2446.48,581.387 2445.23,578.027C2443.98,574.672 2440.24,572.969 2436.88,574.223C2433.52,575.477 2431.82,579.211 2433.08,582.57C2434.04,585.18 2436.52,586.793 2439.14,586.793ZM2267.23,412.371C2268.03,412.692 2268.85,412.836 2269.66,412.836C2272.22,412.836 2274.66,411.305 2275.68,408.781C2277.02,405.453 2275.41,401.676 2272.09,400.336C2268.78,398.996 2264.98,400.594 2263.64,403.926C2262.3,407.242 2263.9,411.016 2267.23,412.371ZM2200.57,977.301C2197.03,977.817 2194.59,981.121 2195.11,984.664C2195.59,987.895 2198.35,990.203 2201.52,990.203C2201.84,990.203 2202.16,990.188 2202.48,990.129C2206.02,989.609 2208.47,986.309 2207.94,982.762C2207.42,979.215 2204.12,976.781 2200.57,977.301ZM2234.12,401.242C2234.7,401.402 2235.26,401.473 2235.82,401.473C2238.68,401.473 2241.3,399.57 2242.08,396.672C2243.02,393.215 2240.98,389.652 2237.52,388.715C2234.06,387.777 2230.5,389.824 2229.56,393.285C2228.63,396.746 2230.67,400.305 2234.12,401.242ZM2199.95,394.137C2200.27,394.195 2200.59,394.207 2200.89,394.207C2204.06,394.207 2206.83,391.887 2207.3,388.656C2207.82,385.113 2205.38,381.824 2201.83,381.305C2198.28,380.785 2194.98,383.238 2194.46,386.785C2193.94,390.332 2196.41,393.633 2199.95,394.137ZM2234.74,970.133C2231.28,971.07 2229.25,974.633 2230.18,978.094C2230.98,980.977 2233.59,982.879 2236.44,982.879C2237.02,982.879 2237.58,982.805 2238.16,982.649C2241.62,981.695 2243.65,978.137 2242.71,974.676C2241.76,971.215 2238.2,969.184 2234.74,970.133ZM2165.8,980.383C2162.21,980.484 2159.4,983.484 2159.5,987.059C2159.6,990.578 2162.48,993.359 2165.99,993.359C2166.05,993.359 2166.12,993.359 2166.18,993.344C2169.77,993.242 2172.58,990.258 2172.48,986.668C2172.36,983.094 2169.38,980.285 2165.8,980.383ZM2165.17,391.137L2165.34,391.137C2168.84,391.137 2171.73,388.356 2171.83,384.824C2171.93,381.25 2169.1,378.266 2165.51,378.164C2161.94,378.063 2158.95,380.887 2158.85,384.477C2158.75,388.051 2161.58,391.035 2165.17,391.137ZM2267.81,958.934C2264.48,960.289 2262.88,964.067 2264.23,967.395C2265.26,969.902 2267.7,971.434 2270.25,971.434C2271.07,971.434 2271.89,971.289 2272.68,970.957C2276.01,969.602 2277.6,965.824 2276.26,962.508C2274.9,959.192 2271.13,957.594 2267.81,958.934ZM2299.28,943.899C2296.15,945.641 2295.01,949.578 2296.74,952.719C2297.93,954.852 2300.14,956.063 2302.42,956.063C2303.49,956.063 2304.57,955.805 2305.57,955.258C2308.7,953.527 2309.83,949.578 2308.1,946.434C2306.37,943.305 2302.42,942.168 2299.28,943.899ZM2130.88,979.391C2127.32,979.074 2124.17,981.711 2123.86,985.285C2123.55,988.848 2126.18,991.988 2129.76,992.305C2129.95,992.32 2130.14,992.336 2130.32,992.336C2133.65,992.336 2136.49,989.785 2136.78,986.41C2137.1,982.836 2134.46,979.692 2130.88,979.391ZM2328.33,445.977C2329.47,446.797 2330.79,447.188 2332.09,447.188C2334.13,447.188 2336.11,446.25 2337.38,444.477C2339.46,441.567 2338.79,437.516 2335.88,435.426C2332.97,433.332 2328.92,434.012 2326.83,436.922C2324.74,439.836 2325.42,443.887 2328.33,445.977ZM2298.78,427.352C2299.77,427.899 2300.84,428.16 2301.9,428.16C2304.18,428.16 2306.4,426.949 2307.58,424.801C2309.31,421.656 2308.18,417.707 2305.03,415.992C2301.89,414.262 2297.95,415.399 2296.22,418.543C2294.49,421.684 2295.63,425.621 2298.78,427.352ZM2328.78,925.242C2325.86,927.332 2325.2,931.383 2327.3,934.297C2328.56,936.055 2330.55,936.992 2332.57,936.992C2333.88,936.992 2335.21,936.59 2336.36,935.766C2339.26,933.676 2339.92,929.625 2337.83,926.711C2335.74,923.801 2331.69,923.137 2328.78,925.242" style="fill:rgb(253,253,254);fill-rule:nonzero;"/>
                        </g>
                        <g>
                            <g>
                                <g transform="matrix(0.18,0,0,0.18,158.85368,419.589796)">
                                    <g transform="matrix(1,0,0,1,193.724,651.302)">
                                        <text x="0px" y="0px" style="font-family:'PlayfairDisplaySC-Regular', 'Playfair Display SC';font-size:197.186px;fill:rgb(191,176,140);">C</text>
                                    </g>
                                </g>
                            </g>
                        </g>
                        <g>
                            <g>
                                <g transform="matrix(0.18,0,0,0.18,175.7424,419.589796)">
                                    <g transform="matrix(1,0,0,1,214.32,651.302)">
                                        <text x="0px" y="0px" style="font-family:'PlayfairDisplaySC-Regular', 'Playfair Display SC';font-size:197.186px;fill:rgb(124,114,92);">R</text>
                                    </g>
                                </g>
                            </g>
                        </g>
                        <g>
                            <g>
                                <g transform="matrix(0.18,0,0,0.18,159.29894,428.950986)">
                                    <g>
                                        <g transform="matrix(1,0,0,1,194.267,560.667)">
                                            <path d="M9.111,-20.333C6.667,-16.963 4.741,-13.685 3.333,-10.5C1.926,-7.315 1.222,-4.639 1.222,-2.472C1.222,-0.306 2.056,0.778 3.722,0.778C5.982,0.778 10.519,-1.519 17.333,-6.111L21.056,-8.445C21.315,-8.593 21.593,-8.667 21.889,-8.667C22.185,-8.667 22.334,-8.63 22.334,-8.556C22.334,-8.482 22.278,-8.407 22.167,-8.333L18.167,-5.889C17.722,-5.593 16.685,-4.898 15.056,-3.806C13.426,-2.713 12.222,-1.926 11.445,-1.444C10.667,-0.963 9.648,-0.37 8.389,0.333C6.019,1.704 4.074,2.389 2.556,2.389C0.185,2.389 -1,0.611 -1,-2.944C-1,-5.278 -0.296,-8.074 1.111,-11.333C2.519,-14.593 4.491,-17.908 7.028,-21.278C9.565,-24.648 12.417,-27.797 15.583,-30.722C18.75,-33.648 22.306,-36.047 26.25,-37.917C30.195,-39.787 34.037,-40.723 37.778,-40.723C39.815,-40.723 40.834,-39.945 40.834,-38.389C40.834,-36.537 39.593,-34.01 37.111,-30.806C34.63,-27.602 31.75,-24.741 28.472,-22.222C25.195,-19.704 22.574,-18.445 20.611,-18.445C19.722,-18.445 19.278,-18.704 19.278,-19.222C19.278,-19.593 19.676,-20.195 20.472,-21.028C21.269,-21.861 21.908,-22.278 22.389,-22.278C22.537,-22.278 22.611,-22.213 22.611,-22.084C22.611,-21.954 22.38,-21.676 21.917,-21.25C21.454,-20.824 21.222,-20.546 21.222,-20.417C21.222,-20.287 21.259,-20.222 21.334,-20.222C22.445,-20.222 24.519,-21.371 27.556,-23.667C30.593,-25.963 33.445,-28.584 36.111,-31.528C38.778,-34.472 40.111,-36.704 40.111,-38.223C40.111,-39.445 39.185,-40.056 37.334,-40.056C34.148,-40.056 30.769,-39.102 27.195,-37.195C23.621,-35.287 20.333,-32.843 17.333,-29.861C14.333,-26.88 11.593,-23.704 9.111,-20.333Z" style="fill:rgb(253,253,254);"/>
                                            <path d="M35.945,-6.611L36,-5.889C30.037,-1.926 26.408,0.056 25.111,0.056C24.889,0.056 24.778,-0.074 24.778,-0.333C24.778,-1.111 25.074,-2.222 25.667,-3.667L25.945,-4.444C25.945,-4.519 25.88,-4.556 25.75,-4.556C25.621,-4.556 24.537,-3.815 22.5,-2.333C20.5,-0.852 19.195,-0.111 18.583,-0.111C17.972,-0.111 17.667,-0.667 17.667,-1.778C17.667,-4.852 19.417,-7.852 22.917,-10.778C26.417,-13.704 30.63,-15.167 35.556,-15.167C36,-15.167 36.223,-14.982 36.223,-14.611C36.223,-14.241 34.482,-12.083 31,-8.139C27.519,-4.194 25.778,-1.815 25.778,-1C25.778,-0.852 25.889,-0.778 26.111,-0.778C26.334,-0.778 27.278,-1.259 28.945,-2.222C30.611,-3.185 32.185,-4.148 33.667,-5.111L35.945,-6.611ZM27.111,-6.556C27.741,-7.037 28.963,-8.315 30.778,-10.389C32.593,-12.463 33.5,-13.667 33.5,-14C33.5,-14.148 33.352,-14.222 33.056,-14.222C31.352,-14.222 29.371,-13.435 27.111,-11.861C24.852,-10.287 22.935,-8.5 21.361,-6.5C19.787,-4.5 19,-2.889 19,-1.667C19,-1.444 19.111,-1.333 19.333,-1.333C19.556,-1.333 19.917,-1.472 20.417,-1.75C20.917,-2.028 21.528,-2.417 22.25,-2.917C22.972,-3.417 23.593,-3.852 24.111,-4.222C25.889,-5.556 26.889,-6.333 27.111,-6.556Z" style="fill:rgb(253,253,254);"/>
                                        </g>
                                        <g transform="matrix(1,0,0,1,225.63,560.667)">
                                            <path d="M18.778,-8.278L19.222,-7.778C17.519,-6.741 16.13,-5.87 15.056,-5.167C13.982,-4.463 13.167,-4.111 12.611,-4.111C11.796,-4.111 11.389,-4.463 11.389,-5.167C11.389,-5.685 11.676,-6.713 12.25,-8.25C12.824,-9.787 13.222,-10.87 13.445,-11.5L13.278,-11.667C13.13,-11.667 12.963,-11.593 12.778,-11.445C9.037,-8.445 6.62,-6.426 5.528,-5.389C4.435,-4.352 3.38,-3.241 2.361,-2.056C1.343,-0.87 0.787,-0.222 0.694,-0.111C0.602,0 0.537,0.074 0.5,0.111C0.389,0.222 0.009,0.278 -0.639,0.278C-1.287,0.278 -1.611,0.222 -1.611,0.111C-1.537,0 -1.074,-0.519 -0.222,-1.444C1.852,-3.704 3.722,-5.87 5.389,-7.945L3.778,-7C2.074,-5.963 0.833,-5.185 0.056,-4.667L-0.167,-5.278L3.333,-7.5C4.593,-8.315 5.676,-9.167 6.583,-10.056C7.491,-10.945 8.111,-11.667 8.445,-12.222C8.778,-12.778 9.074,-13.241 9.333,-13.611C9.593,-13.982 9.833,-14.167 10.056,-14.167C10.278,-14.167 10.63,-14.037 11.111,-13.778C11.111,-13.408 10.815,-12.759 10.222,-11.833C9.63,-10.907 9.037,-10.074 8.445,-9.333L7.556,-8.278C7.556,-8.204 7.574,-8.167 7.611,-8.167C7.722,-8.167 7.852,-8.232 8,-8.361C8.148,-8.491 8.769,-9.009 9.861,-9.917C10.954,-10.824 11.908,-11.602 12.722,-12.25C13.537,-12.898 14.472,-13.519 15.528,-14.111C16.583,-14.704 17.352,-15 17.833,-15C18.315,-15 18.556,-14.889 18.556,-14.667C18.556,-14.37 17.648,-13.741 15.833,-12.778C15.426,-12.556 14.806,-11.491 13.972,-9.583C13.139,-7.676 12.722,-6.278 12.722,-5.389C12.722,-5.204 12.898,-5.111 13.25,-5.111C13.602,-5.111 14.296,-5.444 15.333,-6.111L18.778,-8.278Z" style="fill:rgb(253,253,254);"/>
                                            <path d="M14.154,-5.5L13.987,-6.111L16.32,-7.722C17.987,-8.833 19.135,-9.667 19.765,-10.222C20.395,-10.778 20.848,-11.157 21.126,-11.361C21.404,-11.565 21.719,-11.87 22.071,-12.278C22.422,-12.685 22.635,-12.926 22.709,-13C22.709,-13 22.932,-13.296 23.376,-13.889C23.746,-14.333 23.95,-14.593 23.987,-14.667C24.58,-14.519 24.876,-14.074 24.876,-13.333C23.839,-11.778 22.321,-9.852 20.321,-7.556C18.32,-5.259 17.32,-4.065 17.32,-3.972C17.32,-3.88 17.348,-3.833 17.404,-3.833C17.459,-3.833 17.737,-4.028 18.237,-4.417C18.737,-4.806 20.098,-5.778 22.321,-7.333C26.839,-10.445 29.895,-12.537 31.487,-13.611C32.117,-14.13 32.552,-14.389 32.793,-14.389C33.034,-14.389 33.237,-14.306 33.404,-14.139C33.571,-13.972 33.654,-13.741 33.654,-13.445C33.654,-13.148 33.358,-12.537 32.765,-11.611C32.172,-10.685 31.543,-9.796 30.876,-8.945C29.135,-6.722 28.061,-5.407 27.654,-5C27.469,-4.704 27.376,-4.528 27.376,-4.472C27.376,-4.417 27.395,-4.389 27.432,-4.389C27.691,-4.389 31.802,-7.296 39.765,-13.111C41.061,-14.037 41.932,-14.5 42.376,-14.5C42.71,-14.5 42.876,-14.139 42.876,-13.417C42.876,-12.695 42.321,-11.611 41.21,-10.167C40.098,-8.722 38.876,-7.389 37.543,-6.167C33.987,-2.907 32.209,-1.111 32.209,-0.778C32.209,-0.741 32.284,-0.722 32.432,-0.722C32.876,-0.722 35.376,-2.185 39.932,-5.111L42.21,-6.611L42.265,-5.889C36.302,-1.926 32.672,0.056 31.376,0.056C31.154,0.056 31.043,-0.056 31.043,-0.278C31.043,-1.648 31.904,-3.269 33.626,-5.139C35.348,-7.009 37.061,-8.695 38.765,-10.195C40.469,-11.695 41.321,-12.685 41.321,-13.167C41.321,-13.241 41.293,-13.278 41.237,-13.278C41.182,-13.278 41.061,-13.222 40.876,-13.111C40.691,-13 38.367,-11.37 33.904,-8.222C29.441,-5.074 26.839,-3.232 26.098,-2.694C25.358,-2.157 24.45,-1.352 23.376,-0.278C23.006,0.019 22.432,0.167 21.654,0.167C20.876,0.167 20.487,0.083 20.487,-0.083C20.487,-0.25 20.635,-0.481 20.932,-0.778C23.154,-3 25.534,-5.519 28.071,-8.333C30.608,-11.148 31.932,-12.667 32.043,-12.889C32.043,-13 31.987,-13.056 31.876,-13.056C31.506,-13.056 29.228,-11.583 25.043,-8.639C20.858,-5.694 18.432,-3.982 17.765,-3.5C16.024,-2.204 15.107,-1.528 15.015,-1.472C14.922,-1.417 14.728,-1.222 14.432,-0.889C13.765,-0.185 13.154,0.167 12.598,0.167C12.043,0.019 11.746,-0.093 11.709,-0.167C12.561,-1.13 14.672,-3.704 18.043,-7.889L14.154,-5.5Z" style="fill:rgb(253,253,254);"/>
                                            <path d="M52.918,-14.278C52.918,-14.389 52.844,-14.445 52.696,-14.445C51.696,-14.445 50.14,-13.574 48.029,-11.833C45.918,-10.093 44.085,-8.185 42.529,-6.111C44.381,-6.704 46.575,-8.037 49.113,-10.111C51.65,-12.185 52.918,-13.574 52.918,-14.278ZM40.085,-1.167C40.085,-0.685 40.27,-0.444 40.64,-0.444C41.085,-0.444 42.085,-0.75 43.64,-1.361C45.196,-1.972 46.474,-2.574 47.474,-3.167L52.918,-6.611L52.974,-5.889C49.085,-3.296 46.187,-1.648 44.279,-0.944C42.372,-0.241 41.103,0.111 40.474,0.111C39.437,0.111 38.918,-0.537 38.918,-1.833C38.918,-3.574 39.548,-5.315 40.807,-7.056C42.066,-8.796 43.538,-10.222 45.224,-11.333C46.909,-12.445 48.538,-13.352 50.113,-14.056C51.687,-14.759 52.881,-15.111 53.696,-15.111C54.511,-15.111 54.918,-14.833 54.918,-14.278C54.918,-12.908 53.298,-11.241 50.057,-9.278C46.816,-7.315 44.122,-6.019 41.974,-5.389C40.714,-3.574 40.085,-2.167 40.085,-1.167Z" style="fill:rgb(253,253,254);"/>
                                            <path d="M50.961,-5.444L50.795,-6.111L52.628,-7.278C55.406,-9.13 57.146,-10.435 57.85,-11.195C58.554,-11.954 58.98,-12.426 59.128,-12.611C60.091,-13.833 60.628,-14.519 60.739,-14.667C61.184,-14.519 61.406,-14.074 61.406,-13.333C60.665,-12.259 59.665,-10.972 58.406,-9.472C57.146,-7.972 56.109,-6.732 55.295,-5.75C54.48,-4.769 54.072,-4.204 54.072,-4.056C54.072,-3.907 54.1,-3.833 54.156,-3.833C54.211,-3.833 54.489,-4.028 54.989,-4.417C55.489,-4.806 56.85,-5.778 59.072,-7.333C63.554,-10.445 66.406,-12.417 67.628,-13.25C68.85,-14.083 69.637,-14.5 69.989,-14.5C70.341,-14.5 70.517,-14.139 70.517,-13.417C70.517,-12.695 69.961,-11.611 68.85,-10.167C67.739,-8.722 66.517,-7.389 65.184,-6.167C61.628,-2.907 59.85,-1.111 59.85,-0.778C59.85,-0.741 59.924,-0.722 60.072,-0.722C60.517,-0.722 63.017,-2.185 67.572,-5.111L69.85,-6.611L69.906,-5.889C63.943,-1.926 60.313,0.056 59.017,0.056C58.795,0.056 58.684,-0.056 58.684,-0.278C58.684,-1.648 59.545,-3.269 61.267,-5.139C62.989,-7.009 64.702,-8.695 66.406,-10.195C68.11,-11.695 68.961,-12.685 68.961,-13.167C68.961,-13.241 68.924,-13.278 68.85,-13.278C67.776,-12.759 65.285,-11.12 61.378,-8.361C57.471,-5.602 55.183,-3.982 54.517,-3.5C52.776,-2.204 51.859,-1.528 51.767,-1.472C51.674,-1.417 51.48,-1.222 51.183,-0.889C50.517,-0.185 49.906,0.167 49.35,0.167C48.461,0.093 47.998,0.037 47.961,0C47.924,-0.037 47.906,-0.074 47.906,-0.111C47.906,-0.148 48.22,-0.5 48.85,-1.167C49.443,-1.796 50.035,-2.426 50.628,-3.056C52.591,-5.241 53.943,-6.796 54.683,-7.722L50.961,-5.444Z" style="fill:rgb(253,253,254);"/>
                                            <path d="M121.755,-16.445C120.163,-16.445 118.274,-15.574 116.088,-13.833C118.051,-12.5 119.996,-11.833 121.922,-11.833C122.7,-11.833 123.311,-12.065 123.755,-12.528C124.2,-12.991 124.422,-13.528 124.422,-14.139C124.422,-14.75 124.19,-15.287 123.727,-15.75C123.264,-16.213 122.607,-16.445 121.755,-16.445ZM87.81,-1.222C87.81,-3.926 89.218,-7.102 92.033,-10.75C94.848,-14.398 98.329,-17.241 102.477,-19.278C101.144,-18.945 100.014,-18.778 99.088,-18.778C96.162,-18.778 94.699,-19.833 94.699,-21.945C94.699,-23.426 95.449,-25.176 96.949,-27.195C98.449,-29.213 100.385,-31.158 102.755,-33.028C105.125,-34.898 108.014,-36.482 111.422,-37.778C114.829,-39.074 118.218,-39.723 121.588,-39.723C123.144,-39.723 123.922,-39.334 123.922,-38.556C123.922,-37.445 122.607,-36.019 119.977,-34.278C117.348,-32.537 115.144,-31.667 113.366,-31.667C112.848,-31.667 112.588,-31.954 112.588,-32.528C112.588,-33.102 112.977,-33.713 113.755,-34.361C114.533,-35.01 115.024,-35.334 115.227,-35.334C115.431,-35.334 115.533,-35.25 115.533,-35.084C115.533,-34.917 115.357,-34.722 115.005,-34.5C114.653,-34.278 114.477,-34.084 114.477,-33.917C114.477,-33.75 114.551,-33.667 114.7,-33.667C115.663,-33.667 117.274,-34.38 119.533,-35.806C121.792,-37.232 122.922,-38.241 122.922,-38.834C122.922,-39.093 122.681,-39.223 122.2,-39.223C119.2,-39.223 116.098,-38.519 112.894,-37.111C109.69,-35.704 106.94,-34.028 104.644,-32.084C102.348,-30.139 100.449,-28.167 98.949,-26.167C97.449,-24.167 96.699,-22.537 96.699,-21.278C96.699,-20.019 97.459,-19.389 98.977,-19.389C102.014,-19.389 105.403,-20.63 109.144,-23.111C109.7,-23.445 110.264,-23.806 110.838,-24.195C111.412,-24.584 111.764,-24.824 111.894,-24.917C112.024,-25.009 112.144,-25.056 112.255,-25.056C112.366,-25.056 112.422,-24.908 112.422,-24.611L112.422,-24.445C112.422,-24.111 110.996,-23.111 108.144,-21.445L106.699,-20.556C102.403,-18.519 98.431,-15.333 94.783,-11C91.135,-6.667 89.31,-3.241 89.31,-0.722C89.31,0.833 90.144,1.611 91.81,1.611C93.255,1.611 95.06,1.046 97.227,-0.083C99.394,-1.213 101.625,-2.667 103.922,-4.444C108.033,-7.667 111.348,-10.5 113.866,-12.945C113.755,-13.019 113.468,-13.25 113.005,-13.639C112.542,-14.028 112.218,-14.287 112.033,-14.417C111.848,-14.546 111.551,-14.741 111.144,-15C110.44,-15.37 109.551,-15.556 108.477,-15.556C105.959,-15.556 103.625,-14.445 101.477,-12.222C99.329,-10 98.255,-8.185 98.255,-6.778C98.255,-6.333 98.44,-6.111 98.811,-6.111C99.848,-6.111 101.116,-6.907 102.616,-8.5C104.116,-10.093 105.162,-11.593 105.755,-13C105.94,-13.333 106.07,-13.5 106.144,-13.5C106.366,-13.5 106.477,-13.408 106.477,-13.222C106.477,-12.185 105.449,-10.583 103.394,-8.417C101.338,-6.25 99.588,-5.167 98.144,-5.167C97.107,-5.167 96.588,-5.63 96.588,-6.556C96.588,-8.37 98.014,-10.509 100.866,-12.972C103.718,-15.435 106.885,-16.667 110.366,-16.667C111.255,-16.667 111.95,-16.528 112.45,-16.25C112.95,-15.972 113.274,-15.796 113.422,-15.722C113.57,-15.648 113.922,-15.408 114.477,-15C115.033,-14.593 115.329,-14.37 115.366,-14.333C117.848,-16.445 120.107,-17.5 122.144,-17.5C123.218,-17.5 124.079,-17.204 124.727,-16.611C125.376,-16.019 125.7,-15.269 125.7,-14.361C125.7,-13.454 125.218,-12.648 124.255,-11.945C123.292,-11.241 121.801,-10.889 119.783,-10.889C117.764,-10.889 116.033,-11.407 114.588,-12.445C111.848,-9.778 108.885,-7.204 105.699,-4.722C99.551,0.13 94.903,2.556 91.755,2.556C89.125,2.556 87.81,1.296 87.81,-1.222Z" style="fill:rgb(253,253,254);"/>
                                            <path d="M159.66,-21.778L159.438,-15.833C159.808,-15.352 160.401,-15.111 161.216,-15.111C163.142,-15.111 166.021,-16.583 169.855,-19.528C173.688,-22.472 177.151,-25.806 180.244,-29.528C183.336,-33.25 184.883,-36.093 184.883,-38.056C184.883,-39.574 183.864,-40.334 181.827,-40.334C178.938,-40.334 175.438,-39.26 171.327,-37.111C167.216,-34.963 163.142,-32.213 159.105,-28.861C155.068,-25.509 151.281,-21.954 147.744,-18.195C144.206,-14.435 141.336,-10.75 139.132,-7.139C136.929,-3.528 135.827,-0.593 135.827,1.667C135.827,1.963 135.956,2.111 136.216,2.111C137.29,2.111 139.642,-0.046 143.271,-4.361C146.901,-8.676 150.392,-13.25 153.744,-18.083C157.095,-22.917 159.086,-26.148 159.716,-27.778C159.827,-28.037 159.938,-28.167 160.049,-28.167C160.457,-28.167 160.66,-27.658 160.66,-26.639C160.66,-25.621 160.568,-24.982 160.383,-24.722C159.975,-23.611 159.16,-22.111 157.938,-20.222C155.086,-15.741 151.04,-10.778 145.799,-5.333C140.558,0.111 137.308,2.833 136.049,2.833C135.456,2.833 135.16,2.444 135.16,1.667C135.16,-1.222 136.901,-5.12 140.382,-10.028C143.864,-14.935 148.021,-19.658 152.855,-24.195C157.688,-28.732 162.855,-32.667 168.355,-36C173.855,-39.334 178.42,-41 182.049,-41C185.16,-41 186.716,-39.889 186.716,-37.667C186.716,-35.926 185.753,-33.695 183.827,-30.972C181.901,-28.25 179.586,-25.648 176.883,-23.167C174.179,-20.685 171.234,-18.556 168.049,-16.778C164.864,-15 162.123,-14.111 159.827,-14.111C159.642,-14.111 159.494,-14.13 159.383,-14.167C159.753,-3.204 161.549,2.278 164.771,2.278C165.883,2.278 167.299,1.935 169.021,1.25C170.744,0.565 172.197,-0.13 173.383,-0.833L175.16,-1.889C175.457,-2.074 175.679,-2.167 175.827,-2.167C175.975,-2.167 176.049,-2.102 176.049,-1.972C176.049,-1.843 175.92,-1.667 175.66,-1.444C175.142,-1.111 174.475,-0.685 173.66,-0.167C172.846,0.352 171.42,1.046 169.383,1.917C167.346,2.787 165.67,3.222 164.355,3.222C163.04,3.222 161.938,2.806 161.049,1.972C160.16,1.139 159.494,0 159.049,-1.444C158.197,-4.037 157.771,-7.102 157.771,-10.639C157.771,-14.176 157.984,-16.963 158.41,-19C158.836,-21.037 159.216,-22.056 159.549,-22.056C159.623,-22.056 159.66,-21.963 159.66,-21.778Z" style="fill:rgb(253,253,254);"/>
                                            <path d="M191.648,-6.611L191.703,-5.889C185.74,-1.926 182.111,0.056 180.815,0.056C180.592,0.056 180.481,-0.074 180.481,-0.333C180.481,-1.111 180.777,-2.222 181.37,-3.667L181.648,-4.444C181.648,-4.519 181.583,-4.556 181.453,-4.556C181.324,-4.556 180.24,-3.815 178.203,-2.333C176.203,-0.852 174.898,-0.111 174.287,-0.111C173.676,-0.111 173.37,-0.667 173.37,-1.778C173.37,-4.852 175.12,-7.852 178.62,-10.778C182.12,-13.704 186.333,-15.167 191.259,-15.167C191.703,-15.167 191.926,-14.982 191.926,-14.611C191.926,-14.241 190.185,-12.083 186.703,-8.139C183.222,-4.194 181.481,-1.815 181.481,-1C181.481,-0.852 181.592,-0.778 181.815,-0.778C182.037,-0.778 182.981,-1.259 184.648,-2.222C186.315,-3.185 187.889,-4.148 189.37,-5.111L191.648,-6.611ZM182.815,-6.556C183.444,-7.037 184.666,-8.315 186.481,-10.389C188.296,-12.463 189.203,-13.667 189.203,-14C189.203,-14.148 189.055,-14.222 188.759,-14.222C187.055,-14.222 185.074,-13.435 182.815,-11.861C180.555,-10.287 178.639,-8.5 177.064,-6.5C175.49,-4.5 174.703,-2.889 174.703,-1.667C174.703,-1.444 174.814,-1.333 175.037,-1.333C175.259,-1.333 175.62,-1.472 176.12,-1.75C176.62,-2.028 177.231,-2.417 177.953,-2.917C178.676,-3.417 179.296,-3.852 179.814,-4.222C181.592,-5.556 182.592,-6.333 182.815,-6.556Z" style="fill:rgb(253,253,254);"/>
                                            <path d="M212.079,-20.611C212.523,-20.611 212.746,-20.352 212.746,-19.833C212.746,-19.315 211.468,-18.63 208.912,-17.778C206.357,-16.926 204.949,-16.5 204.69,-16.5C204.431,-16.5 204.301,-16.537 204.301,-16.611C204.301,-16.759 204.431,-16.88 204.69,-16.972C204.949,-17.065 205.366,-17.269 205.94,-17.583C206.514,-17.898 207.264,-18.324 208.19,-18.861C209.116,-19.398 210.023,-19.889 210.912,-20.333C211.394,-20.519 211.783,-20.611 212.079,-20.611ZM197.634,-12C197.968,-12.408 198.357,-12.926 198.801,-13.556C199.245,-14.185 199.616,-14.5 199.912,-14.5C200.208,-14.5 200.523,-14.222 200.857,-13.667C200.857,-13 199.181,-10.815 195.829,-7.111C192.477,-3.407 190.801,-1.389 190.801,-1.056C190.801,-0.981 190.912,-0.944 191.134,-0.944C191.356,-0.944 192.653,-1.704 195.023,-3.222C199.986,-6.407 204.264,-9.907 207.857,-13.722C208.745,-14.537 209.523,-14.945 210.19,-14.945L210.301,-14.945C211.005,-14.908 211.357,-14.815 211.357,-14.667L211.301,-14.556C209.708,-13.074 207.338,-10.574 204.19,-7.056C201.042,-3.537 199.468,-1.463 199.468,-0.833C199.468,-0.685 199.588,-0.611 199.829,-0.611C200.07,-0.611 202.597,-2.13 207.412,-5.167L209.69,-6.611L209.746,-5.944C209.301,-5.648 208.727,-5.278 208.023,-4.833C202.505,-1.352 199.282,0.389 198.357,0.389C198.023,0.389 197.857,0.204 197.857,-0.167C197.857,-0.537 198.31,-1.593 199.218,-3.333C200.125,-5.074 200.782,-6.185 201.19,-6.667L200.301,-6.167C194.708,-2.167 191.356,-0.167 190.245,-0.167C189.801,-0.167 189.579,-0.417 189.579,-0.917C189.579,-1.417 189.782,-2.065 190.19,-2.861C190.597,-3.657 190.977,-4.296 191.329,-4.778C191.681,-5.259 192.208,-5.917 192.912,-6.75C193.616,-7.583 193.986,-8.019 194.023,-8.056L189.69,-5.5L189.523,-6.111L191.412,-7.278C194.634,-9.352 196.708,-10.926 197.634,-12Z" style="fill:rgb(253,253,254);"/>
                                            <path d="M238.288,-36.556C237.177,-36.556 233.084,-33 226.01,-25.889C218.936,-18.778 213.566,-12.685 209.899,-7.611C213.306,-10.204 218.908,-15.287 226.705,-22.861C234.501,-30.435 238.399,-34.945 238.399,-36.389C238.399,-36.463 238.362,-36.519 238.288,-36.556ZM239.344,-37.556C239.677,-37.556 239.844,-37.352 239.844,-36.945C239.844,-35.167 235.871,-30.435 227.927,-22.75C219.982,-15.065 213.677,-9.593 209.01,-6.333C207.38,-4 206.566,-2.315 206.566,-1.278C206.566,-0.944 206.64,-0.778 206.788,-0.778C208.306,-0.778 211.029,-2 214.955,-4.444L218.288,-6.611L218.344,-5.889C217.418,-5.296 216.362,-4.63 215.177,-3.889C210.881,-1.222 207.899,0.111 206.232,0.111C205.788,0.111 205.566,-0.241 205.566,-0.944C205.566,-3.093 207.066,-6.269 210.066,-10.472C213.066,-14.676 216.501,-18.75 220.371,-22.695C224.242,-26.639 228.038,-30.102 231.76,-33.084C235.483,-36.065 238.01,-37.556 239.344,-37.556Z" style="fill:rgb(253,253,254);"/>
                                        </g>
                                    </g>
                                </g>
                            </g>
                        </g>
                        <g>
                            <g>
                                <g transform="matrix(0.167301,0.06641,-0.06641,0.167301,168.790949,450.37076)">
                                    <g transform="matrix(1,0,0,1,393.958,448.041)">
                                        <text x="0px" y="0px" style="font-family:'PlayfairDisplaySC-Regular', 'Playfair Display SC';font-size:19.069px;fill:rgb(116,116,115);">1</text>
                                    </g>
                                </g>
                                <g transform="matrix(0.172199,0.052416,-0.052416,0.172199,170.351457,450.971549)">
                                    <g transform="matrix(1,0,0,1,358.892,479.137)">
                                        <text x="0px" y="0px" style="font-family:'PlayfairDisplaySC-Regular', 'Playfair Display SC';font-size:19.069px;fill:rgb(116,116,115);">6</text>
                                    </g>
                                </g>
                                <g transform="matrix(0.175658,0.039298,-0.039298,0.175658,172.362827,451.54383)">
                                    <g transform="matrix(1,0,0,1,325.35,504.99)">
                                        <text x="0px" y="0px" style="font-family:'PlayfairDisplaySC-Regular', 'Playfair Display SC';font-size:19.07px;fill:rgb(116,116,115);">.</text>
                                    </g>
                                </g>
                                <g transform="matrix(0.178244,0.025078,-0.025078,0.178244,173.673202,451.831304)">
                                    <g transform="matrix(1,0,0,1,286.5,529.633)">
                                        <text x="0px" y="0px" style="font-family:'PlayfairDisplaySC-Regular', 'Playfair Display SC';font-size:19.07px;fill:rgb(116,116,115);">0</text>
                                    </g>
                                </g>
                                <g transform="matrix(0.179777,0.008957,-0.008957,0.179777,175.96784,452.113801)">
                                    <g transform="matrix(1,0,0,1,241.765,553.498)">
                                        <text x="0px" y="0px" style="font-family:'PlayfairDisplaySC-Regular', 'Playfair Display SC';font-size:19.069px;fill:rgb(116,116,115);">5</text>
                                    </g>
                                </g>
                                <g transform="matrix(0.179966,-0.003518,0.003518,0.179966,177.776409,452.173869)">
                                    <g transform="matrix(1,0,0,1,205.981,569.065)">
                                        <text x="0px" y="0px" style="font-family:'PlayfairDisplaySC-Regular', 'Playfair Display SC';font-size:19.07px;fill:rgb(116,116,115);">.</text>
                                    </g>
                                </g>
                                <g transform="matrix(0.179228,-0.016658,0.016658,0.179228,179.12334,452.135955)">
                                    <g transform="matrix(1,0,0,1,166.478,582.736)">
                                        <text x="0px" y="0px" style="font-family:'PlayfairDisplaySC-Regular', 'Playfair Display SC';font-size:19.07px;fill:rgb(116,116,115);">2</text>
                                    </g>
                                </g>
                                <g transform="matrix(0.176879,-0.033371,0.033371,0.176879,181.081785,451.932597)">
                                    <g transform="matrix(1,0,0,1,114.824,596.025)">
                                        <text x="0px" y="0px" style="font-family:'PlayfairDisplaySC-Regular', 'Playfair Display SC';font-size:19.07px;fill:rgb(116,116,115);">0</text>
                                    </g>
                                </g>
                                <g transform="matrix(0.172976,-0.049792,0.049792,0.172976,183.342778,451.468394)">
                                    <g transform="matrix(1,0,0,1,62.565,604.438)">
                                        <text x="0px" y="0px" style="font-family:'PlayfairDisplaySC-Regular', 'Playfair Display SC';font-size:19.069px;fill:rgb(116,116,115);">2</text>
                                    </g>
                                </g>
                                <g transform="matrix(0.167875,-0.064947,0.064947,0.167875,185.23073,450.898395)">
                                    <g transform="matrix(1,0,0,1,12.269,607.841)">
                                        <text x="0px" y="0px" style="font-family:'PlayfairDisplaySC-Regular', 'Playfair Display SC';font-size:19.069px;fill:rgb(116,116,115);">6</text>
                                    </g>
                                </g>
                            </g>
                        </g>
                    </g>
                </g>
            </g>
        </g>
    </g>
</svg>
