<svg width="127" height="17" viewBox="0 0 127 17" fill="none" xmlns="http://www.w3.org/2000/svg">
<line y1="8.25" x2="46.7207" y2="8.25" stroke="#181617" stroke-width="0.5"/>
<path d="M63.7363 0C63.7267 0.165464 63.7207 0.33213 63.7207 0.5C63.7207 5.02655 67.259 8.72553 71.7207 8.98438V9.01465C67.4245 9.26386 63.9856 12.7038 63.7363 17H63.7051C63.4462 12.5383 59.7473 9 55.2207 9C55.0529 9 54.8861 9.00505 54.7207 9.01465V8.98438C54.8862 8.99397 55.0528 9 55.2207 9C59.9151 9 63.7207 5.19442 63.7207 0.5C63.7207 0.33213 63.7147 0.165464 63.7051 0H63.7363Z" fill="#181617"/>
<line x1="79.7207" y1="8.25" x2="126.441" y2="8.25" stroke="#181617" stroke-width="0.5"/>
</svg>
